<svg width="391" height="363" viewBox="0 0 391 363" fill="none" xmlns="http://www.w3.org/2000/svg">
<path d="M95.7416 290.309C113.15 310.254 135.27 326.21 160.29 336.001C147.986 319.614 137.641 301.845 129.465 283.055C117.862 284.869 106.621 287.045 95.7416 290.308V290.309Z" fill="#245EAC"/>
<path d="M162.097 332.373V280.88C152.306 280.88 142.517 281.606 133.086 282.694C140.96 300.239 150.685 316.894 162.097 332.373Z" fill="#245EAC"/>
<path d="M131.636 279.069C141.428 277.981 151.943 277.255 162.097 276.894V225.758C146.135 225.758 130.185 226.845 114.954 228.3C118.944 245.705 124.383 262.749 131.636 279.066V279.069Z" fill="#245EAC"/>
<path d="M92.1099 291.397C81.2329 294.66 71.0777 299.013 62.0116 303.726C89.2084 325.48 123.297 338.9 160.285 339.989C133.45 329.473 110.241 312.793 92.1099 291.397Z" fill="#245EAC"/>
<path d="M108.065 171.365H162.098V124.223C145.78 124.223 129.467 123.135 113.868 121.68C110.241 138.362 108.427 155.043 108.065 171.361V171.365Z" fill="#245EAC"/>
<path d="M114.953 118.06C130.184 119.873 146.139 120.602 162.096 120.602V69.1061C151.942 69.1061 141.424 68.38 131.634 66.9307C124.383 83.6092 118.942 100.654 114.953 118.067V118.06Z" fill="#245EAC"/>
<path d="M113.868 224.673C129.459 222.859 145.78 222.13 162.097 222.13V174.99H108.067C108.428 191.307 110.242 207.99 113.867 224.67L113.868 224.673Z" fill="#245EAC"/>
<path d="M61.2856 238.09C46.0559 242.079 32.276 246.793 19.9459 252.233C29.738 271.089 43.1549 287.406 58.7485 301.189C68.1762 296.112 78.6944 291.761 89.5742 288.495C77.6039 273.265 67.8202 256.222 61.2856 238.09Z" fill="#245EAC"/>
<path d="M162.097 65.4842V13.9851C150.686 29.4648 140.96 46.1191 133.086 63.6648C142.516 64.7525 152.306 65.4785 162.097 65.4785V65.4842Z" fill="#245EAC"/>
<path d="M128.01 66.5662C116.044 64.7525 104.44 62.5771 93.5606 59.314C81.5945 74.183 71.8066 90.8615 64.9145 109.358C80.1834 113.169 95.6902 115.953 111.331 117.692C115.32 100.286 120.759 83.242 128.011 66.5564L128.01 66.5662Z" fill="#245EAC"/>
<path d="M128.01 279.792C120.759 263.475 115.317 246.069 111.328 229.025C95.6874 230.764 80.1806 233.549 64.9117 237.359C71.8023 255.853 81.5931 272.533 93.5578 287.403C104.435 283.776 116.042 281.236 128.01 279.787V279.792Z" fill="#245EAC"/>
<path d="M63.4624 112.62C56.9362 131.114 53.3086 150.696 53.3086 171.366H104.802C104.802 155.047 106.977 138.003 110.605 120.96C93.9251 119.146 77.974 116.245 63.4624 112.626V112.62Z" fill="#245EAC"/>
<path d="M53.3086 174.992C53.6702 195.299 56.9362 215.251 63.4624 233.737C78.9764 229.927 94.7248 227.143 110.605 225.403C106.977 208.36 104.802 191.68 104.802 174.997L53.3086 174.992Z" fill="#245EAC"/>
<path d="M89.5714 58.2249C78.6944 54.5988 68.1762 50.6096 58.7471 45.5327C43.1549 58.9524 29.738 75.2693 19.5843 94.1261C31.9134 99.5646 45.6933 104.641 60.924 108.269C67.799 90.1933 77.465 73.3069 89.57 58.2249H89.5714Z" fill="#245EAC"/>
<path d="M49.6825 174.992H0C0.361625 201.464 6.89067 226.847 18.1307 248.969C30.4599 243.167 44.6028 238.454 59.832 234.465C53.1211 215.355 49.6891 195.248 49.6811 174.995L49.6825 174.992Z" fill="#245EAC"/>
<path d="M59.8363 111.895C44.6056 107.906 30.4627 103.191 18.135 97.3906C6.8935 119.512 0.364463 144.895 0.00283813 171.367H49.6825C49.69 151.113 53.123 131.006 59.8363 111.897V111.895Z" fill="#245EAC"/>
<path d="M160.285 10.3577C135.262 20.1498 113.142 36.1023 96.0976 56.0481C106.613 59.3112 117.852 61.4866 129.46 62.9388C137.802 44.4451 148.32 26.3144 160.285 10.3577Z" fill="#245EAC"/>
<path d="M160.285 6.73291C122.933 7.45616 89.2084 20.8758 62.0116 42.6313C71.4393 47.3465 81.5917 51.6973 92.1099 54.9604C110.242 33.5666 133.45 16.8909 160.285 6.73291Z" fill="#245EAC"/>
<path d="M214.877 271.661L214.434 271.033C214.398 270.982 214.326 270.9 214.257 270.821C213.975 270.499 213.551 270.012 213.455 269.315C213.242 267.815 213.031 266.217 213.013 264.615C213 263.418 213.044 262.214 213.088 261.053C213.129 259.923 213.171 258.769 213.16 257.644C213.156 256.057 212.625 254.515 211.65 253.262C210.675 252.009 209.311 251.116 207.773 250.723C207.006 250.532 206.218 250.441 205.427 250.451C204.549 250.465 203.672 250.522 202.8 250.624C201.925 250.711 201.035 250.809 200.174 250.906L199.011 251.032L196.225 251.331L197.543 248.859C197.778 248.426 198.113 248.054 198.519 247.774L201.877 245.355C205.436 242.789 209.114 240.137 212.741 237.54C213.777 236.799 214.437 235.945 214.749 234.928C214.805 234.745 214.816 234.551 214.781 234.363C214.499 233.729 214.044 233.341 213.424 233.212C207.577 232.003 202.807 231.292 198.411 230.973C192.81 230.569 187.852 228.646 183.674 225.263C182.517 224.337 181.306 223.48 180.047 222.697C178.822 221.897 177.422 221.406 175.966 221.267C175.747 221.25 175.525 221.24 175.309 221.24C173.524 221.24 171.794 221.859 170.171 223.077C167.866 224.792 165.661 226.637 163.566 228.604C161.045 230.991 158.549 233.509 156.136 235.95C155.268 236.827 154.398 237.703 153.527 238.576C152.521 239.581 151.484 240.168 150.262 240.412C149.131 240.657 148.101 241.239 147.307 242.08C146.405 243.019 145.729 244.151 145.329 245.39C144.671 247.314 143.273 248.506 141.288 248.841C139.932 249.07 138.625 249.633 137.175 250.617C136.782 250.882 136.4 251.156 135.995 251.447C135.317 251.935 134.616 252.436 133.876 252.892C132.746 253.583 131.603 253.933 130.486 253.933C128.887 253.933 127.402 253.227 126.074 251.854C125.275 251.025 124.903 250.001 125.028 248.971C125.152 247.941 125.744 247.065 126.699 246.461C130.008 244.37 131.911 241.234 132.516 236.885C132.705 235.52 132.817 234.098 132.924 232.723C132.983 231.959 133.044 231.169 133.119 230.385C133.387 227.591 134.989 225.996 137.752 225.772L139.853 225.604C141.71 225.462 143.63 225.307 145.503 225.125C146.954 224.984 148.498 224.823 150.009 224.522C150.481 224.422 150.921 224.211 151.294 223.906C151.666 223.601 151.96 223.211 152.151 222.769C152.48 221.942 152.318 221.061 151.671 220.148C149.372 216.908 147.116 213.566 144.935 210.335C143.541 208.268 142.099 206.131 140.662 204.046C139.097 201.776 138.768 199.321 139.683 196.749C140.224 195.226 140.692 193.641 141.087 192.283C141.296 191.537 141.461 190.779 141.58 190.013C141.924 187.937 141.061 186.637 138.94 186.041C137.82 185.726 136.655 185.54 135.42 185.335C134.868 185.246 134.29 185.154 133.725 185.052C128.674 184.123 124.369 181.565 120.93 177.448C119.603 175.862 118.121 174.764 116.398 174.102C115.189 173.629 113.903 173.384 112.605 173.38C110.851 173.38 109.017 173.84 107.155 174.749C101.292 177.611 95.3602 180.59 89.6251 183.472L87.0994 184.743C85.8634 185.363 84.6132 186.014 83.4026 186.648C81.7258 187.524 79.9912 188.431 78.2494 189.275C77.1966 189.804 76.0375 190.087 74.8592 190.104C73.0878 190.104 71.4125 189.414 69.8826 188.055C68.5782 186.856 66.8632 186.202 65.0911 186.229C64.709 186.23 64.3273 186.255 63.9483 186.304C63.2095 186.398 62.4778 186.535 61.7023 186.681C60.8787 186.835 60.0269 186.993 59.1596 187.105C58.0125 187.241 56.8581 187.307 55.703 187.303C53.3411 187.303 50.9863 187.058 48.7078 186.822L47.719 186.721C46.1227 186.56 44.7977 186.438 43.4685 186.438C41.0148 186.438 39.1572 186.876 37.4437 187.861L35.5833 188.927L35.2401 186.808C34.9039 184.733 33.7258 183.151 31.5306 181.829C31.0206 181.522 30.5008 181.235 29.9513 180.932C29.2747 180.559 28.574 180.172 27.8917 179.744C27.37 179.399 26.8769 179.012 26.417 178.588C26.2334 178.429 26.0624 178.277 25.8901 178.135L25.3491 177.69V175.514L25.4381 175.269C25.5355 174.999 25.6358 174.73 25.7347 174.463C25.9423 173.898 26.1585 173.323 26.3492 172.757C26.6812 171.784 27.006 170.808 27.338 169.832C27.903 168.151 28.478 166.413 29.0798 164.708C29.7861 162.705 31.217 161.329 33.3373 160.612C33.4685 160.564 33.5904 160.495 33.6975 160.405C34.0775 159.589 34.4844 158.655 34.5889 157.803C34.8714 155.509 35.2175 153.072 36.0255 150.691C37.5935 146.079 40.382 142.18 44.5519 138.774C45.8572 137.706 47.1643 136.64 48.4733 135.576C50.5399 133.892 52.6772 132.149 54.7735 130.43C55.751 129.629 56.2638 128.633 56.2977 127.463C56.3223 125.999 56.2727 124.535 56.1493 123.076C55.9996 121.073 55.3852 119.672 54.1576 118.529C52.793 117.257 51.5118 115.986 50.8055 114.372C49.8548 112.196 49.1245 110.001 48.3504 107.679C48.0439 106.756 47.726 105.803 47.3955 104.853L46.757 103.059L48.6612 102.896C49.181 102.852 49.6853 102.802 50.1797 102.754C51.2815 102.647 52.3226 102.545 53.3962 102.506C55.9629 102.411 57.4518 101.376 58.223 99.1578C58.442 98.5307 58.6722 97.9289 58.9293 97.265C59.6992 95.276 61.2418 94.1332 63.3903 93.9581C66.7636 93.6756 70.1934 93.3761 73.5102 93.0809C75.2995 92.9226 77.085 92.7654 78.8668 92.609C80.0392 92.5092 81.2017 92.3155 82.3431 92.0299C83.4386 91.7685 84.5621 91.6432 85.6882 91.657C86.0526 91.657 86.4354 91.6683 86.8267 91.6894C89.1999 91.818 91.2934 92.7037 93.3247 93.5597L98.0781 95.5727C102.764 97.5503 107.61 99.5972 112.374 101.614C116.37 103.309 119.742 104.206 122.985 104.44C128.777 104.863 133.492 105.099 137.817 105.19C142.297 105.283 146.136 106.226 149.557 108.077C150.499 108.588 151.445 109.096 152.395 109.6C153.139 109.997 153.884 110.396 154.629 110.795C159.053 113.175 163.226 114.326 167.387 114.326C167.711 114.326 168.038 114.318 168.363 114.305C172.896 114.109 175.024 112.352 175.949 108.036C176.527 105.342 177.03 102.574 177.516 99.8966C177.682 98.9775 177.85 98.0579 178.02 97.1378C178.444 94.8692 179.503 93.7476 181.693 93.2631L183.778 92.7997C186.394 92.2178 189.1 91.616 191.773 91.058C196.45 90.0805 202.017 89.0295 207.851 88.6439C208.588 88.5944 209.346 88.5295 210.076 88.4659L211.123 88.3755H211.183H213.932L215.52 88.9405C216.895 89.4349 218.317 89.9463 219.714 90.4591C220.208 90.6115 220.662 90.8721 221.043 91.2219L221.481 91.6584C223.142 93.3097 224.862 95.0189 226.51 96.7522C227.129 97.3883 227.581 98.1678 227.826 99.0212C228.07 99.8745 228.1 100.775 227.911 101.643C227.872 101.839 227.834 102.034 227.796 102.23C227.699 102.732 227.598 103.25 227.475 103.77C227.276 104.602 227.06 105.44 226.852 106.249C226.428 107.872 226.004 109.552 225.709 111.193C225.285 113.595 226.263 115.175 228.474 115.649C229.156 115.77 229.847 115.831 230.54 115.831C231.326 115.853 232.131 115.86 232.911 115.867C234.155 115.879 235.442 115.891 236.725 115.962C239.643 116.126 241.27 117.595 241.848 120.586C242.396 123.56 243.278 126.463 244.477 129.239C245.289 131.09 246.21 132.381 247.374 133.299C248.809 134.429 250.514 134.939 252.899 134.939C253.265 134.939 253.642 134.928 254.054 134.904C258.477 134.648 262.886 133.502 266.776 132.491L267.518 132.299C269.042 131.9 270.617 131.489 272.195 131.14C272.575 131.052 272.964 131.005 273.355 130.999C274.557 130.999 276.171 131.491 277.037 133.824C277.116 134.039 277.178 134.248 277.241 134.436C277.303 134.624 277.354 134.799 277.413 134.952C278.05 136.592 279.357 137.695 281.406 138.321C285.22 139.486 288.652 140.421 291.899 141.178C292.735 141.375 293.608 141.543 294.453 141.704C296.335 142.067 298.283 142.441 300.183 143.169C305.801 145.322 310.818 148.589 315.67 151.749C317.003 152.616 318.457 154.299 317.823 157.388C317.69 158.035 317.555 158.681 317.418 159.326C317.021 161.202 316.611 163.14 316.315 165.047C315.899 167.72 316.353 169.945 317.7 171.849C318.009 172.304 318.282 172.782 318.517 173.278C318.614 173.47 318.705 173.651 318.799 173.824L318.98 174.154V176.181L318.958 176.31C318.942 176.393 318.926 176.476 318.909 176.558C318.883 176.7 318.857 176.841 318.843 176.947C318.747 177.727 318.658 178.526 318.573 179.299C318.377 181.059 318.175 182.878 317.867 184.667C317.459 187.108 316.118 188.294 313.77 188.294C313.629 188.294 313.478 188.294 313.324 188.281C310.334 188.125 307.313 187.858 304.394 187.601L304.268 187.589C303.686 187.538 303.138 187.489 302.61 187.489C302.077 187.477 301.547 187.55 301.037 187.705C299.558 188.185 298.454 189.248 297.562 191.046C295.754 194.697 293.99 198.273 292.298 201.848C291.422 203.697 290.019 204.733 288.126 204.926C287.561 204.984 286.996 205.067 286.393 205.156L285.937 205.224C283.159 205.625 280.665 206.874 278.026 208.191L277.64 208.383C275.143 209.631 272.616 210.934 270.171 212.197C269.337 212.626 268.504 213.055 267.67 213.484C266.786 213.937 265.96 214.159 265.146 214.159C264.588 214.156 264.035 214.056 263.512 213.862C263.142 213.722 262.751 213.649 262.356 213.646C261.733 213.641 261.129 213.86 260.654 214.262C259.211 215.445 257.886 216.766 256.699 218.206C255.369 219.843 253.874 220.64 252.106 220.64C251.807 220.639 251.508 220.617 251.212 220.572C250.85 220.518 250.484 220.49 250.117 220.489C248.032 220.489 246.398 221.507 245.12 223.596C243.775 225.8 242.112 227.358 240.034 228.36C239.187 228.771 238.312 229.137 237.47 229.49C236.558 229.874 235.698 230.236 234.856 230.651C233.302 231.419 231.793 232.186 230.47 233.136C229.372 233.923 228.986 235.046 229.355 236.385C230.152 239.299 231.522 242.024 233.387 244.401C235.223 246.733 237.533 247.868 240.464 247.868C240.993 247.866 241.522 247.831 242.047 247.763C242.702 247.679 243.355 247.595 244.008 247.509C248.489 246.925 253.122 246.322 257.772 246.322C258.786 246.322 259.788 246.352 260.746 246.408L260.9 246.418C261.606 246.459 262.274 246.497 262.831 247.048C263.351 247.561 263.435 248.178 263.537 248.951C263.556 249.101 263.562 249.253 263.555 249.405C263.555 249.441 263.555 249.484 263.555 249.535V250.602L262.543 250.94C262.023 251.115 261.502 251.294 260.982 251.475C259.726 251.911 258.428 252.36 257.104 252.73C255.95 253.065 254.756 253.241 253.554 253.254H253.183C248.91 253.254 245.586 254.898 243.022 258.281C241.741 259.976 240.003 260.865 237.997 260.865C237.818 260.865 237.634 260.858 237.451 260.844C237.106 260.817 236.76 260.803 236.422 260.803C233.541 260.803 230.857 261.792 228.444 263.769C227.503 264.535 226.571 265.367 225.67 266.171C225.02 266.75 224.347 267.35 223.667 267.931L223.166 268.355C221.669 269.651 219.971 271.119 217.606 271.592L217.465 271.62L214.877 271.661Z" fill="#FED500"/>
<path d="M213.674 89.8614C215.517 90.5254 217.363 91.185 219.203 91.8589C219.494 91.9434 219.764 92.0877 219.997 92.2826C221.824 94.1007 223.658 95.9158 225.435 97.7833C225.893 98.2451 226.226 98.8148 226.405 99.4398C226.584 100.065 226.602 100.725 226.458 101.359C226.316 102.051 226.195 102.747 226.034 103.435C225.436 105.938 224.702 108.416 224.251 110.946C223.676 114.175 225.213 116.479 228.167 117.112C228.938 117.254 229.72 117.326 230.503 117.327C232.55 117.384 234.6 117.342 236.644 117.457C238.937 117.584 239.961 118.635 240.394 120.879C240.966 123.961 241.881 126.969 243.122 129.846C243.901 131.622 244.908 133.252 246.457 134.476C248.384 135.998 250.593 136.435 252.902 136.435C253.312 136.435 253.726 136.423 254.143 136.398C258.583 136.141 262.87 135.052 267.152 133.94C268.936 133.475 270.719 132.999 272.52 132.601C272.796 132.537 273.077 132.504 273.36 132.501C274.471 132.501 275.197 133.118 275.653 134.364C275.794 134.742 275.89 135.137 276.036 135.512C276.927 137.805 278.768 139.088 280.98 139.763C284.477 140.832 288.008 141.817 291.574 142.647C294.274 143.277 297.048 143.575 299.664 144.578C305.134 146.675 310.003 149.845 314.874 153.016C316.406 154.013 316.73 155.426 316.384 157.112C315.855 159.685 315.265 162.249 314.861 164.842C314.427 167.642 314.806 170.33 316.502 172.729C316.901 173.294 317.176 173.943 317.508 174.554V176.072C317.466 176.311 317.411 176.548 317.382 176.788C317.069 179.344 316.847 181.913 316.423 184.45C316.131 186.195 315.412 186.839 313.79 186.839C313.672 186.839 313.547 186.839 313.419 186.829C310.442 186.672 307.472 186.405 304.501 186.147C303.874 186.092 303.249 186.034 302.628 186.034C301.941 186.02 301.255 186.115 300.598 186.316C298.503 186.997 297.189 188.519 296.251 190.413C294.47 194.011 292.693 197.61 290.975 201.239C290.352 202.553 289.446 203.327 287.995 203.475C287.24 203.553 286.492 203.672 285.742 203.78C282.583 204.239 279.793 205.69 276.993 207.089C273.651 208.76 270.334 210.479 267.011 212.194C266.445 212.51 265.811 212.686 265.163 212.705C264.777 212.704 264.394 212.634 264.033 212.498C263.5 212.299 262.936 212.196 262.367 212.192C261.399 212.188 260.46 212.528 259.717 213.15C258.198 214.395 256.803 215.786 255.553 217.302C254.583 218.497 253.505 219.186 252.112 219.186C251.885 219.186 251.658 219.168 251.434 219.134C251 219.069 250.562 219.036 250.123 219.035C247.393 219.035 245.348 220.418 243.858 222.86C242.745 224.685 241.315 226.138 239.397 227.061C237.695 227.882 235.904 228.522 234.209 229.358C232.629 230.138 231.039 230.947 229.615 231.967C227.996 233.127 227.401 234.884 227.934 236.817C228.781 239.921 230.241 242.824 232.228 245.355C234.395 248.118 237.192 249.389 240.474 249.389C241.065 249.388 241.657 249.348 242.244 249.272C247.409 248.613 252.565 247.844 257.782 247.844C258.743 247.844 259.705 247.872 260.669 247.928C261.908 248.002 261.913 247.945 262.082 249.19C262.089 249.317 262.089 249.445 262.082 249.573C260.302 250.167 258.529 250.833 256.714 251.34C255.69 251.637 254.63 251.795 253.564 251.809H253.193C248.486 251.809 244.717 253.645 241.849 257.424C240.879 258.704 239.602 259.42 238.007 259.42C237.866 259.42 237.722 259.414 237.575 259.403C237.191 259.373 236.808 259.358 236.432 259.358C233.104 259.358 230.14 260.515 227.517 262.65C225.872 263.99 224.329 265.457 222.714 266.835C221.1 268.212 219.537 269.733 217.325 270.175H215.656C215.406 269.819 214.987 269.487 214.934 269.103C214.72 267.61 214.523 266.101 214.51 264.597C214.485 262.273 214.682 259.948 214.651 257.624C214.606 253.594 211.98 250.289 208.153 249.29C207.263 249.066 206.348 248.958 205.43 248.969C204.502 248.982 203.575 249.042 202.653 249.149C201.381 249.277 200.121 249.42 198.854 249.556C198.982 249.321 199.166 249.122 199.39 248.976C204.127 245.564 208.867 242.153 213.607 238.745C214.822 237.876 215.726 236.781 216.168 235.365C216.32 234.874 216.344 234.223 216.143 233.771C215.69 232.741 214.872 231.994 213.727 231.76C208.701 230.72 203.651 229.865 198.521 229.5C193.351 229.125 188.676 227.41 184.611 224.116C183.408 223.154 182.15 222.263 180.842 221.448C179.416 220.519 177.786 219.952 176.092 219.795C175.829 219.774 175.568 219.763 175.31 219.763C173.074 219.763 171.053 220.568 169.284 221.897C166.934 223.647 164.686 225.529 162.549 227.535C159.115 230.784 155.822 234.182 152.48 237.527C151.767 238.241 150.994 238.753 149.967 238.965C148.546 239.268 147.251 239.994 146.25 241.048C145.196 242.146 144.402 243.468 143.93 244.915C143.442 246.336 142.482 247.141 141.044 247.384C139.31 247.677 137.781 248.423 136.345 249.395C135.258 250.131 134.226 250.948 133.096 251.631C132.192 252.183 131.319 252.456 130.482 252.456C129.292 252.456 128.175 251.908 127.138 250.831C126.165 249.821 126.274 248.488 127.487 247.723C131.41 245.244 133.361 241.56 133.985 237.098C134.287 234.924 134.386 232.719 134.597 230.535C134.797 228.433 135.82 227.427 137.872 227.258C140.466 227.047 143.061 226.859 145.652 226.609C147.212 226.479 148.765 226.271 150.305 225.985C152.847 225.479 155.14 222.473 152.887 219.298C149.129 214.002 145.574 208.562 141.89 203.213C140.592 201.33 140.325 199.399 141.086 197.253C141.619 195.757 142.075 194.231 142.517 192.704C142.742 191.902 142.92 191.087 143.05 190.263C143.511 187.469 142.25 185.438 139.349 184.623C137.608 184.133 135.786 183.935 134 183.606C129.15 182.713 125.221 180.276 122.075 176.51C120.675 174.835 118.992 173.523 116.939 172.731C115.56 172.191 114.093 171.912 112.612 171.909C110.534 171.909 108.496 172.46 106.511 173.429C99.7944 176.707 93.1198 180.069 86.4411 183.426C83.4845 184.911 80.5859 186.509 77.6095 187.947C76.7573 188.379 75.8177 188.612 74.862 188.627C73.4593 188.627 72.123 188.062 70.8714 186.954C69.2924 185.517 67.2285 184.731 65.0939 184.753C64.6485 184.754 64.2036 184.783 63.7619 184.84C62.1614 185.045 60.5849 185.438 58.983 185.634C57.8954 185.762 56.801 185.825 55.7058 185.821C53.0868 185.821 50.4792 185.511 47.8687 185.246C46.3954 185.104 44.9263 184.953 43.4685 184.953C41.1687 184.953 38.9015 185.312 36.705 186.572C36.2501 183.772 34.5733 181.932 32.2962 180.56C31.1068 179.844 29.8553 179.227 28.6814 178.489C28.0146 178.065 27.4454 177.5 26.8323 176.992V175.777C27.1402 174.929 27.4637 174.082 27.7547 173.234C28.663 170.55 29.5332 167.867 30.4726 165.201C31.0376 163.603 32.1747 162.571 33.8021 162.024C34.2654 161.869 34.8149 161.511 35.0084 161.099C35.4703 160.11 35.9238 159.059 36.0551 157.991C36.3377 155.679 36.671 153.392 37.4239 151.175C38.9778 146.61 41.7846 142.951 45.4842 139.93C48.8914 137.145 52.3071 134.374 55.7086 131.584C56.98 130.539 57.7258 129.163 57.7738 127.521C57.8011 126.006 57.7507 124.49 57.6227 122.98C57.4645 120.861 56.8048 118.985 55.1605 117.457C54.0078 116.384 52.769 115.196 52.1588 113.792C50.8521 110.799 49.9283 107.638 48.7897 104.382C50.4439 104.24 51.9469 104.051 53.4513 103.994C56.4729 103.883 58.6073 102.582 59.6258 99.6507C59.8419 99.032 60.0778 98.419 60.3151 97.8073C60.8801 96.3453 61.9156 95.5726 63.5146 95.4426C68.6777 95.0188 73.8365 94.5414 78.9967 94.0936C80.2477 93.9863 81.4881 93.7794 82.7062 93.4749C83.6842 93.2453 84.6865 93.1353 85.691 93.1471C86.0456 93.1471 86.3973 93.1584 86.7491 93.1782C88.892 93.2941 90.8654 94.1388 92.8232 94.9652C99.1469 97.6369 105.472 100.309 111.797 102.983C115.353 104.49 119.021 105.644 122.879 105.926C127.841 106.286 132.815 106.575 137.788 106.678C141.712 106.759 145.4 107.526 148.852 109.388C150.541 110.3 152.243 111.197 153.928 112.107C158.152 114.38 162.584 115.822 167.389 115.822C167.733 115.822 168.079 115.814 168.428 115.8C173.581 115.576 176.325 113.376 177.401 108.359C178.179 104.732 178.804 101.07 179.479 97.4203C179.786 95.7689 180.394 95.0824 182.013 94.7236C185.367 93.9806 188.716 93.2248 192.078 92.5214C197.323 91.4266 202.593 90.4915 207.951 90.1369C209.05 90.0634 210.148 89.9575 211.246 89.8671H213.675M214.192 86.9006H211.123L211 86.9105C210.649 86.9388 210.293 86.9699 209.949 87.0009C209.192 87.0659 208.475 87.1281 207.754 87.1761C201.828 87.5688 196.197 88.6311 191.469 89.6185C188.785 90.1835 186.073 90.7825 183.45 91.3659L181.371 91.8264C178.615 92.438 177.086 94.0427 176.568 96.8806C176.395 97.8045 176.226 98.7424 176.061 99.6493C175.577 102.313 175.072 105.069 174.507 107.736C173.724 111.382 172.16 112.669 168.305 112.836C168.003 112.849 167.697 112.856 167.394 112.856C163.484 112.856 159.542 111.755 155.339 109.495C154.598 109.096 153.855 108.698 153.11 108.301C152.176 107.803 151.213 107.287 150.269 106.779C146.636 104.814 142.576 103.812 137.855 103.712C133.557 103.623 128.868 103.386 123.099 102.966C120.024 102.743 116.802 101.88 112.96 100.253C108.228 98.2466 103.415 96.2153 98.759 94.249C97.1665 93.5766 95.5745 92.9042 93.983 92.2318L93.9053 92.1993C91.8626 91.3362 89.546 90.3629 86.9157 90.2217C86.492 90.1991 86.0865 90.1863 85.6966 90.1863C84.4488 90.1746 83.2043 90.3169 81.9914 90.6101C80.9246 90.8765 79.8381 91.057 78.7424 91.1497C76.9527 91.3065 75.1361 91.4676 73.3746 91.6244C70.0606 91.9196 66.6351 92.2233 63.2689 92.4988C60.5524 92.7205 58.5197 94.2292 57.5436 96.7479C57.2809 97.4273 57.0449 98.0418 56.8203 98.6902C56.3499 100.042 55.5773 100.96 53.3383 101.044C52.2209 101.085 51.1572 101.185 50.0314 101.298C49.544 101.346 49.0426 101.395 48.5312 101.439L44.7172 101.765L45.9786 105.373C46.305 106.308 46.6214 107.256 46.9265 108.173C47.6766 110.426 48.4521 112.754 49.4282 114.992C50.2489 116.87 51.7067 118.32 53.1306 119.642C54.0771 120.522 54.5319 121.59 54.652 123.213C54.7713 124.622 54.8184 126.037 54.7933 127.451C54.7806 127.913 54.6633 128.608 53.8115 129.307C51.718 131.025 49.5737 132.765 47.5142 134.449L43.5928 137.647C41.5766 139.276 39.7765 141.156 38.2362 143.241C36.677 145.375 35.451 147.734 34.6002 150.237C33.7455 152.752 33.3882 155.275 33.0958 157.644C33.0336 158.146 32.802 158.751 32.5449 159.339C30.1646 160.223 28.478 161.911 27.6587 164.236C27.0541 165.954 26.4721 167.697 25.9099 169.384C25.5892 170.341 25.2587 171.333 24.9295 172.301C24.7445 172.847 24.5425 173.391 24.3292 173.968C24.2284 174.239 24.1286 174.51 24.0297 174.781L23.8503 175.273V178.412L24.9323 179.301C25.0863 179.429 25.2488 179.571 25.4225 179.725C25.9411 180.202 26.4976 180.636 27.0866 181.022C27.8056 181.473 28.5232 181.87 29.2182 182.252C29.7564 182.549 30.2635 182.829 30.7494 183.123C32.5674 184.217 33.4955 185.434 33.7611 187.068L34.4476 191.306L38.1656 189.171C39.6417 188.324 41.2733 187.947 43.4529 187.947C44.8119 187.947 46.2682 188.088 47.5495 188.229C47.8786 188.262 48.2063 188.295 48.5383 188.331C50.8549 188.571 53.2493 188.818 55.6888 188.818C56.904 188.823 58.1183 188.753 59.3249 188.609C60.2402 188.497 61.1146 188.335 61.9608 188.177C62.7151 188.036 63.427 187.903 64.122 187.814C64.4387 187.772 64.7576 187.751 65.077 187.75C66.485 187.729 67.8476 188.249 68.8839 189.202C70.6935 190.81 72.6979 191.625 74.8451 191.625C76.2485 191.61 77.6301 191.276 78.8851 190.647C80.6466 189.8 82.3912 188.883 84.0778 188.002C85.2842 187.372 86.5301 186.72 87.7506 186.106L90.2749 184.835C96.0086 181.956 101.936 178.978 107.791 176.12C109.449 175.311 111.064 174.901 112.594 174.901C113.71 174.903 114.815 175.114 115.853 175.524C117.335 176.089 118.62 177.048 119.78 178.437C123.453 182.826 128.045 185.555 133.445 186.55C134.03 186.657 134.611 186.75 135.173 186.841C136.302 186.998 137.422 187.22 138.526 187.503C139.019 187.644 139.668 187.899 139.95 188.338C140.212 188.74 140.178 189.358 140.104 189.806C139.995 190.513 139.843 191.214 139.649 191.903C139.26 193.245 138.802 194.8 138.274 196.282C137.19 199.328 137.579 202.234 139.428 204.919C140.86 206.998 142.301 209.131 143.694 211.195C145.879 214.434 148.139 217.782 150.449 221.037C150.957 221.754 150.809 222.129 150.759 222.252C150.66 222.464 150.514 222.65 150.332 222.797C150.149 222.944 149.936 223.048 149.707 223.099C148.261 223.382 146.76 223.544 145.348 223.681C143.479 223.862 141.563 224.013 139.712 224.159L137.614 224.325C135.872 224.466 134.464 225.063 133.428 226.094C132.393 227.125 131.793 228.526 131.624 230.275C131.548 231.072 131.483 231.87 131.427 232.643C131.317 234.055 131.212 235.393 131.028 236.712C130.763 238.625 130.216 240.293 129.402 241.671C128.538 243.128 127.332 244.353 125.888 245.24C124.549 246.088 123.714 247.359 123.536 248.825C123.358 250.292 123.889 251.775 124.987 252.915C127.004 255.01 129.083 255.449 130.468 255.449C131.852 255.449 133.259 255.025 134.628 254.19C135.42 253.707 136.143 253.187 136.844 252.686C137.24 252.403 137.615 252.132 137.991 251.877C139.262 251.018 140.38 250.529 141.522 250.337C144.041 249.913 145.887 248.338 146.721 245.904C147.05 244.874 147.609 243.933 148.355 243.151C148.942 242.518 149.708 242.081 150.55 241.898C152.049 241.59 153.362 240.855 154.564 239.65C155.441 238.775 156.325 237.881 157.181 237.017C159.583 234.592 162.07 232.085 164.575 229.716C166.629 227.787 168.791 225.977 171.051 224.296C172.412 223.274 173.84 222.756 175.296 222.756C175.473 222.756 175.654 222.763 175.833 222.778C176.994 222.874 178.11 223.269 179.245 223.983C180.454 224.735 181.618 225.558 182.729 226.448C187.147 230.026 192.383 232.058 198.293 232.486C202.622 232.798 207.334 233.501 213.112 234.697C213.158 234.704 213.202 234.722 213.24 234.749C212.997 235.353 212.556 235.879 211.867 236.365C208.232 238.967 204.547 241.624 200.99 244.193L197.646 246.602C197.057 247.014 196.573 247.56 196.234 248.194L193.599 253.138L199.169 252.539L200.342 252.412C201.198 252.319 202.083 252.221 202.949 252.129C203.815 252.038 204.632 251.966 205.427 251.966C206.09 251.955 206.752 252.03 207.396 252.189C209.967 252.864 211.647 255.024 211.676 257.698C211.688 258.787 211.648 259.88 211.604 261.037C211.562 262.217 211.517 263.439 211.529 264.67C211.549 266.366 211.765 268.014 211.986 269.562C212.147 270.692 212.792 271.434 213.138 271.832L213.234 271.944L214.107 273.183H217.609L217.892 273.126C220.641 272.577 222.495 270.972 224.133 269.555C224.296 269.414 224.459 269.273 224.624 269.131C225.316 268.54 225.996 267.935 226.651 267.349C227.582 266.518 228.461 265.734 229.373 264.991C231.546 263.222 233.848 262.364 236.417 262.364C236.716 262.364 237.024 262.376 237.331 262.4C237.552 262.417 237.774 262.426 237.992 262.426C240.479 262.426 242.625 261.33 244.197 259.255C246.494 256.224 249.347 254.815 253.177 254.815H253.549C254.887 254.803 256.218 254.608 257.504 254.237C258.87 253.854 260.188 253.389 261.468 252.954C261.976 252.778 262.503 252.596 263.013 252.425L265.039 251.748V249.612C265.039 249.577 265.039 249.547 265.039 249.522C265.049 249.29 265.038 249.057 265.008 248.827C264.893 247.979 264.749 246.938 263.87 246.071C262.916 245.127 261.798 245.062 260.982 245.014L260.832 245.006C259.843 244.946 258.813 244.917 257.768 244.917C253.023 244.917 248.34 245.527 243.813 246.116L241.858 246.369C241.395 246.43 240.929 246.461 240.462 246.462C237.98 246.462 236.102 245.541 234.551 243.563C232.808 241.341 231.526 238.793 230.782 236.068C230.577 235.322 230.735 234.845 231.331 234.418C232.563 233.535 234.015 232.798 235.51 232.059C236.311 231.664 237.153 231.309 238.043 230.929C238.901 230.567 239.788 230.195 240.676 229.767C242.984 228.652 244.902 226.861 246.38 224.44C247.679 222.308 249.064 222.038 250.112 222.038C250.406 222.039 250.699 222.062 250.99 222.106C251.358 222.161 251.729 222.189 252.101 222.189C254.306 222.189 256.238 221.186 257.844 219.207C258.972 217.843 260.23 216.592 261.6 215.471C261.809 215.287 262.078 215.187 262.356 215.189C262.577 215.193 262.796 215.235 263.003 215.314C263.689 215.568 264.415 215.699 265.146 215.701C266.201 215.701 267.249 215.419 268.348 214.862L270.843 213.578C273.285 212.32 275.811 211.017 278.303 209.773L278.691 209.578C281.221 208.306 283.612 207.114 286.15 206.753L286.61 206.685C287.194 206.599 287.741 206.517 288.279 206.461C289.96 206.291 292.254 205.473 293.64 202.543C295.325 198.983 297.086 195.414 298.893 191.765C299.806 189.928 300.765 189.414 301.498 189.176C301.859 189.07 302.235 189.023 302.611 189.034C303.073 189.034 303.59 189.081 304.138 189.129H304.224H304.268C307.2 189.387 310.233 189.656 313.248 189.814C313.427 189.823 313.604 189.828 313.773 189.828C315.362 189.828 316.607 189.404 317.579 188.52C318.497 187.689 319.069 186.527 319.332 184.963C319.638 183.127 319.843 181.29 320.038 179.506C320.124 178.738 320.212 177.944 320.307 177.171C320.314 177.109 320.336 176.996 320.357 176.889C320.376 176.8 320.393 176.709 320.408 176.62L320.455 176.362V173.802L320.095 173.14C320.013 172.987 319.927 172.816 319.835 172.635C319.566 172.072 319.255 171.531 318.904 171.015C317.774 169.42 317.415 167.604 317.774 165.298C318.063 163.434 318.45 161.6 318.861 159.658C318.996 159.021 319.136 158.363 319.27 157.71C320.117 153.596 317.88 151.445 316.473 150.53C311.555 147.327 306.47 144.018 300.705 141.808C298.684 141.033 296.671 140.646 294.726 140.271C293.857 140.105 293.038 139.948 292.23 139.759C289.015 139.009 285.613 138.082 281.833 136.933C279.714 136.288 279.083 135.204 278.787 134.444C278.748 134.34 278.7 134.187 278.646 134.021C278.583 133.817 278.505 133.586 278.417 133.334C278.001 132.204 277.396 131.317 276.618 130.677C275.694 129.925 274.535 129.521 273.343 129.536C272.845 129.539 272.349 129.596 271.863 129.707C270.258 130.061 268.669 130.476 267.131 130.878L266.392 131.07C262.568 132.059 258.234 133.189 253.961 133.437C253.578 133.46 253.228 133.47 252.892 133.47C250.863 133.47 249.442 133.063 248.287 132.149C247.32 131.386 246.539 130.277 245.829 128.657C244.675 125.983 243.825 123.187 243.297 120.323C242.953 118.536 242.277 117.192 241.235 116.215C240.115 115.165 238.664 114.605 236.799 114.5C235.486 114.427 234.182 114.414 232.92 114.403C232.148 114.403 231.35 114.388 230.578 114.366C229.976 114.367 229.374 114.317 228.78 114.216C227.777 114.001 226.802 113.51 227.164 111.471C227.447 109.879 227.855 108.301 228.284 106.63C228.495 105.815 228.708 104.973 228.913 104.129C229.044 103.578 229.147 103.044 229.248 102.527C229.286 102.335 229.323 102.141 229.361 101.949C229.599 100.848 229.562 99.7053 229.251 98.6225C228.94 97.5397 228.367 96.5506 227.581 95.7435C225.918 93.9961 224.191 92.2812 222.525 90.6228L222.084 90.1849C221.553 89.6824 220.916 89.305 220.22 89.0803C218.823 88.5675 217.403 88.0576 216.03 87.5631L214.674 87.0758L214.187 86.9006H214.192Z" fill="white"/>
<path d="M306.121 344.361L304.952 338.034H290.706V284.875H301.228V295.791C301.228 298.427 301.242 301.11 301.258 303.702C301.293 310.078 301.33 316.671 301.152 323.162C301.109 324.724 301.323 325.724 301.803 326.217C302.227 326.641 303.029 326.856 304.271 326.856C304.48 326.856 304.704 326.856 304.937 326.839C306.761 326.746 308.735 326.698 311.153 326.698C312.687 326.698 314.221 326.714 315.844 326.731C317.087 326.746 318.36 326.76 319.668 326.765V285.208H330.64V337.421L316.754 338.1L315.252 344.361H306.121Z" fill="#245EAC"/>
<path d="M299.815 286.287C299.815 289.549 299.815 292.671 299.815 295.793C299.815 304.904 299.989 314.015 299.741 323.126C299.636 326.919 300.926 328.271 304.271 328.271C304.507 328.271 304.752 328.271 305.009 328.251C307.038 328.148 309.069 328.11 311.15 328.11C314.293 328.11 317.548 328.181 321.076 328.181V286.619H329.223V336.074L315.622 336.741C315.139 338.758 314.67 340.712 314.135 342.948H307.296C306.909 340.853 306.575 339.038 306.127 336.621H292.118V286.287H299.815ZM302.641 283.462H289.293V339.446H303.776L304.518 343.462L304.942 345.773H316.358L316.877 343.608L317.39 341.473L317.873 339.459L325.19 339.102L329.357 338.897L332.041 338.765V283.794H318.244V325.35L315.843 325.326C314.214 325.309 312.677 325.292 311.136 325.292C308.698 325.292 306.7 325.336 304.851 325.433C304.642 325.445 304.442 325.449 304.257 325.449C303.163 325.449 302.835 325.26 302.8 325.237C302.765 325.214 302.508 324.766 302.55 323.207C302.728 316.692 302.691 310.085 302.656 303.698C302.641 301.106 302.626 298.426 302.626 295.794C302.626 293.643 302.626 291.49 302.626 289.296V283.462H302.641Z" fill="#245EAC"/>
<path d="M178.41 284.745H192.045L204.935 326.069L217.824 284.745H231.46L210.836 342.944H198.946L178.41 284.745Z" fill="#245EAC" stroke="#245EAC" stroke-width="2.8252" stroke-miterlimit="10"/>
<path d="M241.327 342.948V284.749H279.99V294.976H254.214V309.279H276.581V319.506H254.214V342.955L241.327 342.948Z" fill="#245EAC" stroke="#245EAC" stroke-width="2.8252" stroke-miterlimit="10"/>
<path d="M369.531 279.782C367.801 281.739 366.846 284.261 366.847 286.872C366.946 292.842 367.678 298.799 367.743 304.767C367.874 310.33 366.206 315.552 364.178 320.649C363.502 322.062 362.765 323.436 362.039 324.816L359.888 324.381C359.016 324.209 358.24 323.719 357.71 323.007C357.18 322.295 356.934 321.411 357.019 320.527C357.104 319.643 357.515 318.823 358.172 318.225C358.828 317.627 359.683 317.295 360.571 317.293L361.355 317.379L359.606 302.781C359.273 299.121 358.046 295.598 356.033 292.523C354.02 289.448 351.282 286.913 348.061 285.143V336.986H360.027C360.909 341.749 363.517 346.021 367.352 348.981C368.248 349.599 368.994 350.411 369.531 351.357C370.07 350.411 370.815 349.599 371.712 348.981C375.547 346.02 378.155 341.749 379.037 336.986H391V285.143C387.779 286.915 385.041 289.45 383.028 292.526C381.015 295.602 379.788 299.125 379.455 302.787L377.707 317.384L378.491 317.3C379.377 317.305 380.23 317.639 380.884 318.236C381.538 318.834 381.947 319.653 382.032 320.535C382.117 321.417 381.873 322.299 381.345 323.01C380.818 323.722 380.045 324.213 379.177 324.388L377.024 324.822C376.292 323.442 375.562 322.064 374.885 320.656C372.857 315.559 371.188 310.336 371.32 304.773C371.383 298.804 372.116 292.848 372.215 286.878C372.218 284.266 371.263 281.743 369.531 279.787V279.782ZM351.639 292.603C354.013 295.386 355.519 298.803 355.973 302.432L357.413 314.47C356.495 314.927 355.685 315.575 355.039 316.371C354.393 317.166 353.925 318.092 353.666 319.084H351.641V292.603H351.639ZM387.422 292.603V319.084H385.398C385.139 318.092 384.67 317.167 384.024 316.371C383.378 315.576 382.569 314.927 381.651 314.47L383.091 302.432C383.543 298.803 385.049 295.386 387.422 292.603ZM369.531 316.807C370.483 319.918 371.802 322.906 373.46 325.706C371.915 326.173 370.547 327.093 369.531 328.348C368.516 327.094 367.148 326.173 365.604 325.706C367.262 322.906 368.58 319.919 369.531 316.807ZM351.639 322.663H353.665C353.982 323.879 354.612 324.99 355.493 325.885C356.374 326.781 357.474 327.43 358.684 327.767L360.403 328.158C359.933 329.866 359.695 331.629 359.697 333.4H351.645L351.639 322.663ZM385.4 322.663H387.426V333.399H379.374C379.376 331.627 379.139 329.864 378.668 328.155L380.389 327.764C381.598 327.427 382.699 326.779 383.579 325.883C384.46 324.988 385.091 323.877 385.407 322.662L385.4 322.663ZM363.899 328.983C364.965 329.133 365.94 329.663 366.646 330.474C367.353 331.285 367.743 332.325 367.744 333.4H363.271C363.274 331.906 363.485 330.419 363.899 328.983ZM375.168 328.983C375.582 330.419 375.793 331.906 375.796 333.4H371.322C371.324 332.325 371.714 331.285 372.42 330.474C373.127 329.663 374.102 329.133 375.168 328.983ZM363.673 336.986H367.742V344.52C365.732 342.421 364.326 339.818 363.673 336.986ZM371.32 336.986H375.388C374.737 339.818 373.331 342.422 371.32 344.52V336.986Z" fill="#245EAC"/>
<path d="M193.464 359.768C193.759 360.596 194.478 361.049 195.542 361.049C196.441 361.049 197.261 360.782 197.261 360.088C197.261 359.727 197.015 359.393 195.934 359.087L194.691 358.739C192.149 358.033 191.778 356.736 191.778 355.962C191.778 354.28 193.399 353.239 195.641 353.239C197.408 353.239 198.782 353.932 199.469 355.281L197.408 356.122C196.916 355.174 196.114 355.068 195.641 355.068C194.855 355.068 194.249 355.321 194.249 355.935C194.249 356.176 194.331 356.616 195.477 356.937L196.687 357.283C199.255 357.938 199.714 359.193 199.731 360.047C199.731 362.011 197.637 362.873 195.624 362.873C193.431 362.873 191.435 361.858 191.206 360.122L193.464 359.768Z" fill="#245EAC"/>
<path d="M211.11 361.09V362.731H203.382V353.384H205.924V361.09H211.11Z" fill="#245EAC"/>
<path d="M213.177 362.731L217.595 353.384H220.066L224.549 362.731H221.898L221.08 360.983V361.009H216.58V360.983L215.794 362.731H213.177ZM217.273 359.313H220.365L218.844 355.575L217.273 359.313Z" fill="#245EAC"/>
<path d="M225.538 353.384H228.222L230.758 360.023L233.293 353.384H235.977L231.916 362.731H229.575L225.538 353.384Z" fill="#245EAC"/>
<path d="M237.001 362.731L241.419 353.384H243.889L248.373 362.731H245.723L244.905 360.983V361.009H240.404V360.983L239.619 362.731H237.001ZM241.098 359.313H244.19L242.669 355.575L241.098 359.313Z" fill="#245EAC"/>
<path d="M265.889 353.384V359.193C265.889 361.594 263.714 362.878 261.144 362.878C258.575 362.878 256.415 361.597 256.415 359.193V353.384H258.957V359.193C258.957 360.488 259.972 361.142 261.15 361.142C262.328 361.142 263.359 360.488 263.359 359.193V353.384H265.889Z" fill="#245EAC"/>
<path d="M272.606 358.457V362.73H270.101V353.383H272.606V357.67L275.996 353.383H278.597V353.651L275.03 357.964L276.469 360.034C277.157 361.008 277.42 361.128 278.074 361.128C278.354 361.108 278.626 361.031 278.875 360.901L279.792 362.37C279.111 362.725 278.35 362.9 277.582 362.877C276.17 362.877 275.096 362.157 274.359 360.981L272.609 358.432L272.606 358.457Z" fill="#245EAC"/>
<path d="M288.926 359.261C289.221 360.249 289.679 361.049 290.824 361.049C291.243 361.039 291.649 360.899 291.985 360.649L292.887 362.077C292.134 362.558 291.512 362.878 290.334 362.878C287.618 362.878 286.783 360.395 286.651 359.408H285.13V362.731H282.61V353.384H287.695C290.052 353.384 291.344 354.814 291.344 356.457C291.348 357.777 290.432 358.872 288.926 359.261ZM287.372 357.751C288.272 357.751 288.811 357.218 288.811 356.443C288.811 355.667 288.272 355.12 287.372 355.12H285.13V357.751H287.372Z" fill="#245EAC"/>
<path d="M294.545 362.731L298.964 353.384H301.434L305.918 362.731H303.268L302.448 360.983V361.009H297.949V360.983L297.164 362.731H294.545ZM298.641 359.313H301.735L300.212 355.575L298.641 359.313Z" fill="#245EAC"/>
<path d="M311.522 362.731H308.986V353.384H311.522V362.731Z" fill="#245EAC"/>
<path d="M318.398 357.044V362.72H315.862V353.386H317.809L322.849 359.022V353.386H325.392V362.733H323.452L318.398 357.044Z" fill="#245EAC"/>
<path d="M332.281 362.731H329.745V353.384H332.281V362.731Z" fill="#245EAC"/>
<path d="M194.605 23.943L202.623 7.33001L199.337 6.96143L193.55 19.7468L190.739 5.99701L187.453 5.62843C188.803 11.659 190.216 17.5716 191.566 23.6021L194.605 23.943Z" fill="#245EAC"/>
<path d="M203.161 16.1487C202.125 20.9866 205.318 25.7888 210.18 26.8294C215.042 27.8699 219.921 24.7952 220.956 19.9573C221.992 15.1194 218.799 10.3173 213.937 9.27667C209.075 8.23607 204.196 11.3108 203.161 16.1487ZM206.321 16.8251C207.055 13.3972 210.197 11.4256 213.333 12.0968C216.469 12.768 218.53 15.853 217.796 19.2809C217.062 22.7088 213.92 24.6804 210.784 24.0093C207.648 23.3381 205.587 20.253 206.321 16.8251Z" fill="#245EAC"/>
<path d="M225.761 28.0785L230.221 13.9545L227.198 12.9998L221.977 29.5329L232.511 32.8594L233.271 30.4503L225.761 28.0785Z" fill="#245EAC"/>
<path d="M250.941 21.4726L246.762 31.528C245.722 34.0304 243.553 34.5831 241.648 33.7911C239.719 32.9895 238.605 31.0723 239.645 28.5699L243.824 18.5145L240.886 17.2931L236.706 27.3485C234.998 31.458 237.04 34.8374 240.598 36.3164C244.111 37.7764 247.992 36.8588 249.7 32.7494L253.88 22.694L250.941 21.4726Z" fill="#245EAC"/>
<path d="M261.25 46.1148L263.35 47.2604L271.704 31.9456L268.904 30.4181L263.307 40.679L261.334 26.289L259.211 25.1315L250.858 40.4463L253.658 41.9738L259.291 31.6472L261.25 46.1148Z" fill="#245EAC"/>
<path d="M275.217 34.1114L273.783 36.2368L278.199 39.2163L269.888 51.5355L272.529 53.3176L280.841 40.9983L285.298 44.0056L286.732 41.8802L275.217 34.1114Z" fill="#245EAC"/>
<path d="M287.811 64.9433L289.395 62.9625L283.045 57.8861L285.994 54.1964L291.529 58.6209L293.112 56.6401L287.578 52.2157L290.729 48.2736L297.079 53.3501L298.678 51.3499L289.843 44.2863L278.976 57.8797L287.811 64.9433Z" fill="#245EAC"/>
<path d="M298.469 74.8816L300.21 73.0379L294.299 67.4561L297.542 64.0217L302.694 68.8865L304.435 67.0428L299.284 62.178L302.749 58.5086L308.659 64.0903L310.418 62.2285L302.193 54.4619L290.244 67.115L298.469 74.8816Z" fill="#245EAC"/>
<path d="M309.516 73.6597L313.89 69.7868L316.428 72.6535C317.5 73.8634 317.277 75.4879 316.012 76.6085C314.727 77.7457 313.158 77.7735 312.054 76.5264L309.516 73.6597ZM318.136 79.0449C320.369 77.0673 321.022 73.8663 318.731 71.2788L313.754 65.6572L300.724 77.1935L302.833 79.5762L307.617 75.3407L309.562 77.5372C308.205 79.0046 305.529 83.0336 308.248 86.105C309.237 87.2219 310.25 87.6534 311.561 87.8211L312.457 85.5332C311.79 85.4926 311.122 85.1878 310.611 84.6108C309.375 83.2147 310.439 81.0778 311.62 79.5998C313.717 81.0306 316.218 80.7424 318.136 79.0449Z" fill="#245EAC"/>
<path d="M314.417 86.4157C312.468 88.4365 312.516 91.7486 314.511 94.4535C316.491 97.1386 319.61 98.3697 322.295 96.3895C323.648 95.392 324.733 93.2408 323.593 89.9051L322.929 87.631C322.351 85.7233 322.965 85.056 323.442 84.704C324.556 83.8826 325.782 84.4213 326.618 85.555C327.366 86.5694 327.707 87.8226 326.627 89.3561L329.106 90.8441C330.626 88.7408 330.602 86.2099 328.886 83.8828C327.023 81.3569 323.971 80.3833 321.525 82.1875C320.371 83.0383 318.913 84.8504 320.129 88.4981L320.833 90.7429C321.29 92.2789 321.128 93.3501 320.333 93.9369C319.219 94.7583 317.785 94.1882 316.714 92.7363C315.6 91.2247 315.663 89.52 316.636 88.3415L314.417 86.4157Z" fill="#245EAC"/>
<path d="M325.256 109.796L331.572 106.166L335.114 112.331L337.321 111.063L333.778 104.898L338.169 102.375L342.234 109.448L344.461 108.167L338.805 98.326L323.665 107.028L325.256 109.796Z" fill="#245EAC"/>
<path d="M337.904 114.68C333.402 116.708 331.429 122.115 333.467 126.64C335.506 131.165 340.863 133.269 345.366 131.241C349.868 129.212 351.841 123.805 349.802 119.281C347.763 114.756 342.406 112.652 337.904 114.68ZM339.229 117.621C342.419 116.184 345.863 117.545 347.178 120.463C348.493 123.382 347.23 126.862 344.04 128.3C340.85 129.737 337.407 128.376 336.092 125.458C334.777 122.539 336.039 119.058 339.229 117.621Z" fill="#245EAC"/>
<path d="M347.909 137.926L353.462 136.109L354.653 139.748C355.155 141.284 354.306 142.686 352.7 143.212C351.069 143.746 349.618 143.148 349.1 141.565L347.909 137.926ZM353.681 146.292C356.517 145.364 358.387 142.685 357.312 139.401L354.977 132.265L338.437 137.678L339.427 140.702L345.499 138.715L346.412 141.503C344.583 142.311 340.528 144.946 341.803 148.844C342.267 150.262 343.025 151.06 344.162 151.735L345.893 149.991C345.297 149.689 344.805 149.144 344.565 148.412C343.985 146.639 345.81 145.101 347.482 144.213C348.838 146.359 351.247 147.088 353.681 146.292Z" fill="#245EAC"/>
<path d="M364.065 167.386L353.352 169.342C350.687 169.829 349.044 168.309 348.674 166.279C348.298 164.225 349.302 162.247 351.968 161.76L362.68 159.804L362.108 156.673L351.396 158.63C347.018 159.429 345.291 162.98 345.983 166.771C346.667 170.512 349.546 173.272 353.924 172.472L364.636 170.516L364.065 167.386Z" fill="#245EAC"/>
<path d="M356.171 180.184L351.713 183.568C350.102 184.698 348.481 186.329 348.67 188.691C348.749 189.685 349.124 190.931 349.919 191.793C350.658 191.334 351.324 190.905 352.065 190.471C351.539 189.837 351.445 189.294 351.419 188.971C351.338 187.952 351.78 187.541 353.276 186.22L357.184 183.155L366.036 188.402L366.434 188.37L366.169 185.064L357.464 180.08L365.718 179.42L365.463 176.238L348.06 177.63L348.315 180.812L356.171 180.184Z" fill="#245EAC"/>
<path d="M358.093 196.805L363.934 196.899L363.872 200.728C363.846 202.343 362.586 203.392 360.895 203.365C359.18 203.337 358.003 202.298 358.03 200.633L358.093 196.805ZM360.818 206.596C363.801 206.644 366.443 204.723 366.499 201.267L366.621 193.76L349.22 193.478L349.168 196.66L355.557 196.763L355.509 199.697C353.517 199.863 348.824 201.03 348.757 205.132C348.733 206.623 349.189 207.625 350.043 208.634L352.249 207.551C351.784 207.071 351.497 206.395 351.509 205.624C351.54 203.76 353.767 202.901 355.636 202.608C356.218 205.079 358.258 206.554 360.818 206.596Z" fill="#245EAC"/>
<path d="M348.588 211.802L351.834 213.398L351.068 220.979L347.564 221.942L347.238 225.167L365.144 220.212L365.474 216.939L348.917 208.553L348.588 211.802ZM353.72 220.326L354.304 214.542L362.108 218.265L353.72 220.326Z" fill="#245EAC"/>
<path d="M363.35 233.619L363.899 230.484L346.756 227.483L346.207 230.618L363.35 233.619Z" fill="#245EAC"/>
<path d="M342.617 246.315L342.032 248.629L358.905 252.892L359.685 249.807L348.38 246.95L361.792 241.467L362.383 239.129L345.51 234.865L344.73 237.951L356.107 240.825L342.617 246.315Z" fill="#245EAC"/>
<path d="M336.836 263.312L339.22 264.174L341.984 256.532L346.424 258.138L344.015 264.799L346.399 265.661L348.808 259L353.552 260.716L350.788 268.358L353.195 269.229L357.041 258.596L340.682 252.679L336.836 263.312Z" fill="#245EAC"/>
</svg>
