<svg width="160" height="147" viewBox="0 0 160 147" fill="none" xmlns="http://www.w3.org/2000/svg">
<path d="M39.6935 117.602C46.7457 125.682 55.7064 132.146 65.8418 136.112C60.8575 129.474 56.6666 122.275 53.3545 114.664C48.6541 115.399 44.1009 116.28 39.6935 117.602V117.602Z" fill="white"/>
<path d="M66.5736 134.642V113.783C62.6075 113.783 58.6419 114.077 54.8217 114.517C58.0111 121.625 61.9508 128.372 66.5736 134.642Z" fill="white"/>
<path d="M54.234 113.049C58.2007 112.608 62.4605 112.314 66.5737 112.168V91.4529C60.1074 91.4529 53.6463 91.8935 47.4765 92.4829C49.0925 99.5334 51.2962 106.438 54.234 113.048V113.049Z" fill="white"/>
<path d="M38.2223 118.043C33.8161 119.365 29.7023 121.128 26.0297 123.037C37.047 131.85 50.8561 137.286 65.8395 137.727C54.9688 133.468 45.567 126.711 38.2223 118.043Z" fill="white"/>
<path d="M44.6857 69.4192H66.5742V50.322C59.9638 50.322 53.3556 49.8814 47.0364 49.292C45.5669 56.0495 44.8322 62.807 44.6857 69.4175V69.4192Z" fill="white"/>
<path d="M47.4759 47.8253C53.6457 48.5601 60.1091 48.8553 66.5731 48.8553V27.9945C62.4598 27.9945 58.199 27.7004 54.2334 27.1133C51.2961 33.8697 49.0919 40.7742 47.4759 47.8282V47.8253Z" fill="white"/>
<path d="M47.0364 91.0135C53.3522 90.2788 59.9638 89.9835 66.5737 89.9835V70.8875H44.6862C44.8327 77.4973 45.5675 84.2554 47.0358 91.0124L47.0364 91.0135Z" fill="white"/>
<path d="M25.7356 96.4485C19.5661 98.0645 13.984 99.9742 8.98914 102.178C12.9559 109.816 18.391 116.426 24.7079 122.01C28.5269 119.953 32.7878 118.191 37.1952 116.868C32.346 110.698 28.3827 103.794 25.7356 96.4485Z" fill="white"/>
<path d="M66.5736 26.5272V5.66528C61.9509 11.936 58.0112 18.6826 54.8217 25.7902C58.6413 26.2308 62.6075 26.5249 66.5736 26.5249V26.5272Z" fill="white"/>
<path d="M52.7651 26.9657C47.9177 26.2309 43.2173 25.3497 38.81 24.0278C33.9626 30.0512 29.9976 36.8075 27.2056 44.3004C33.391 45.8441 39.6727 46.972 46.0087 47.6766C47.6247 40.6255 49.8278 33.7209 52.7656 26.9617L52.7651 26.9657Z" fill="white"/>
<path d="M52.765 113.342C49.8278 106.732 47.6235 99.6812 46.0075 92.7766C39.6715 93.4813 33.3898 94.6092 27.2045 96.1528C29.9958 103.644 33.962 110.401 38.8088 116.425C43.215 114.956 47.9171 113.927 52.765 113.34V113.342Z" fill="white"/>
<path d="M26.6174 45.6216C23.9736 53.1133 22.5042 61.0462 22.5042 69.4191H43.3638C43.3638 62.8086 44.2451 55.9041 45.7146 49.0001C38.9576 48.2653 32.4959 47.0899 26.6174 45.6239V45.6216Z" fill="white"/>
<path d="M22.5042 70.8879C22.6506 79.1144 23.9736 87.1966 26.6174 94.6855C32.902 93.1418 39.2816 92.0139 45.7146 91.3093C44.2451 84.4053 43.3638 77.6483 43.3638 70.8902L22.5042 70.8879Z" fill="white"/>
<path d="M37.194 23.5866C32.7878 22.1177 28.5269 20.5017 24.7073 18.4451C18.391 23.8813 12.9559 30.4912 8.84265 38.1299C13.8371 40.333 19.4193 42.3896 25.5891 43.8591C28.3741 36.5368 32.2898 29.6962 37.1934 23.5866H37.194Z" fill="white"/>
<path d="M21.0352 70.8879H0.90918C1.05567 81.6116 3.70054 91.8941 8.25381 100.856C13.2483 98.5051 18.9775 96.5961 25.1467 94.9802C22.4282 87.2389 21.0379 79.0938 21.0347 70.8891L21.0352 70.8879Z" fill="white"/>
<path d="M25.1485 45.3281C18.9786 43.7121 13.2494 41.802 8.25555 39.4524C3.7017 48.4136 1.05683 58.6961 0.910339 69.4197H21.0352C21.0383 61.2149 22.429 53.0697 25.1485 45.3287V45.3281Z" fill="white"/>
<path d="M65.8395 4.1958C55.7029 8.16253 46.7423 14.6248 39.8377 22.7047C44.0974 24.0266 48.6501 24.9078 53.3527 25.4961C56.7318 18.0044 60.9926 10.6598 65.8395 4.1958Z" fill="white"/>
<path d="M65.8395 2.72754C50.7085 3.02052 37.047 8.45675 26.0297 17.2697C29.8488 19.1799 33.9615 20.9423 38.2223 22.2642C45.5675 13.5977 54.9688 6.84248 65.8395 2.72754Z" fill="white"/>
<path d="M87.9546 110.048L87.7749 109.794C87.7606 109.773 87.7315 109.74 87.7034 109.708C87.589 109.577 87.4173 109.38 87.3784 109.098C87.292 108.49 87.2067 107.843 87.1993 107.194C87.1941 106.709 87.2118 106.221 87.2296 105.751C87.2462 105.293 87.2634 104.825 87.2588 104.37C87.2574 103.727 87.0423 103.102 86.6473 102.595C86.2524 102.087 85.6999 101.725 85.0768 101.566C84.766 101.489 84.4466 101.452 84.1264 101.456C83.7706 101.462 83.4154 101.485 83.062 101.526C82.7078 101.561 82.3473 101.601 81.9982 101.64L81.5273 101.691L80.3988 101.813L80.9327 100.811C81.0279 100.636 81.1634 100.485 81.3281 100.372L82.6883 99.3916C84.1298 98.3524 85.6199 97.2777 87.0894 96.226C87.5088 95.9255 87.7761 95.5799 87.9025 95.1679C87.9254 95.0938 87.9299 95.0152 87.9157 94.939C87.8013 94.6821 87.617 94.5247 87.3658 94.4726C84.9973 93.9828 83.0649 93.695 81.2841 93.5656C79.0152 93.402 77.0066 92.6232 75.3145 91.2527C74.8457 90.8773 74.355 90.5302 73.845 90.2129C73.349 89.8889 72.7817 89.6902 72.1918 89.6338C72.1031 89.627 72.0133 89.6229 71.9258 89.6229C71.2024 89.6229 70.502 89.8736 69.8445 90.3668C68.9107 91.0617 68.0174 91.8093 67.1688 92.606C66.1473 93.5731 65.1362 94.5928 64.1588 95.5816C63.8071 95.9372 63.4548 96.2918 63.1019 96.6454C62.6945 97.0528 62.2744 97.2903 61.7795 97.3893C61.3214 97.4886 60.904 97.7242 60.5824 98.0651C60.217 98.4454 59.9431 98.9039 59.7812 99.4059C59.5146 100.185 58.9481 100.668 58.1441 100.804C57.5947 100.897 57.0654 101.125 56.4777 101.523C56.3186 101.631 56.1641 101.742 55.9999 101.86C55.7252 102.057 55.4414 102.26 55.1415 102.445C54.6838 102.725 54.2208 102.867 53.7682 102.867C53.1204 102.867 52.519 102.581 51.9811 102.024C51.6572 101.689 51.5067 101.274 51.5571 100.856C51.6074 100.439 51.8472 100.085 52.234 99.8396C53.5748 98.9927 54.3456 97.7224 54.5905 95.9604C54.6672 95.4077 54.7124 94.8314 54.7559 94.2746C54.7799 93.9651 54.8045 93.6452 54.8348 93.3276C54.9436 92.1957 55.5925 91.5497 56.7118 91.4587L57.5627 91.3906C58.3152 91.3334 59.0928 91.2704 59.8516 91.1966C60.4393 91.1394 61.0647 91.0741 61.677 90.9522C61.8679 90.9119 62.0463 90.8263 62.1972 90.7028C62.3482 90.5792 62.4673 90.4212 62.5445 90.2421C62.6779 89.9073 62.6121 89.5503 62.35 89.1806C61.419 87.8679 60.5051 86.514 59.6216 85.2053C59.0568 84.3681 58.4725 83.5023 57.8906 82.6577C57.2565 81.7381 57.1232 80.7436 57.494 79.7015C57.7132 79.0847 57.9026 78.4426 58.0628 77.8927C58.1473 77.5904 58.214 77.2833 58.2625 76.9731C58.4016 76.132 58.0519 75.6055 57.193 75.364C56.7392 75.2364 56.2671 75.1609 55.767 75.0779C55.5433 75.0418 55.3092 75.0046 55.0803 74.9634C53.034 74.5869 51.2904 73.5506 49.897 71.8831C49.3597 71.2405 48.7594 70.7959 48.0613 70.5275C47.5716 70.336 47.0506 70.2368 46.5248 70.2351C45.8141 70.2351 45.0714 70.4216 44.3172 70.7896C41.9418 71.9489 39.539 73.1558 37.2157 74.3231L36.1926 74.8381C35.6919 75.0893 35.1854 75.3531 34.695 75.6101C34.0158 75.9649 33.3131 76.3322 32.6075 76.6739C32.181 76.8883 31.7115 77.0031 31.2342 77.0098C30.5166 77.0098 29.8379 76.7305 29.2182 76.18C28.6898 75.694 27.995 75.4292 27.2772 75.4401C27.1224 75.4405 26.9677 75.4506 26.8142 75.4704C26.5149 75.5088 26.2185 75.5643 25.9044 75.6232C25.5708 75.6856 25.2257 75.7497 24.8744 75.7949C24.4097 75.85 23.942 75.8768 23.4741 75.875C22.5173 75.875 21.5634 75.776 20.6404 75.6805L20.2398 75.6393C19.5932 75.574 19.0564 75.5248 18.518 75.5248C17.524 75.5248 16.7715 75.7022 16.0774 76.101L15.3238 76.5331L15.1847 75.6747C15.0485 74.8341 14.5713 74.1932 13.682 73.6576C13.4754 73.5334 13.2649 73.4173 13.0423 73.2942C12.7682 73.1432 12.4843 72.9864 12.2079 72.813C11.9966 72.6732 11.7968 72.5167 11.6105 72.3449C11.5361 72.2802 11.4669 72.219 11.3971 72.1612L11.1779 71.981V71.0997L11.214 71.0002C11.2535 70.8909 11.2941 70.7821 11.3341 70.674C11.4183 70.4451 11.5058 70.2122 11.5831 69.9827C11.7175 69.5884 11.8492 69.193 11.9836 68.7976C12.2125 68.1167 12.4454 67.4128 12.6892 66.7221C12.9753 65.9107 13.555 65.3533 14.4139 65.0626C14.4671 65.0435 14.5164 65.0153 14.5598 64.9791C14.7138 64.6483 14.8786 64.2701 14.9209 63.925C15.0354 62.9957 15.1756 62.0086 15.5029 61.0438C16.138 59.1755 17.2676 57.5961 18.9569 56.2165C19.4856 55.7839 20.0151 55.352 20.5454 54.9209C21.3826 54.2388 22.2484 53.5327 23.0976 52.8363C23.4935 52.5118 23.7013 52.1084 23.715 51.6346C23.725 51.0415 23.7049 50.4483 23.6549 49.8572C23.5943 49.0458 23.3453 48.4781 22.8481 48.0152C22.2953 47.5002 21.7763 46.9852 21.4902 46.3311C21.105 45.4499 20.8092 44.5606 20.4956 43.6199C20.3714 43.2462 20.2427 42.86 20.1088 42.4754L19.8501 41.7487L20.6215 41.6823C20.8321 41.6646 21.0364 41.6445 21.2367 41.6251C21.683 41.5816 22.1047 41.5404 22.5396 41.5244C23.5794 41.486 24.1825 41.0666 24.495 40.1682C24.5837 39.9141 24.6769 39.6703 24.7811 39.4014C25.0929 38.5957 25.7178 38.1327 26.5882 38.0618C27.9547 37.9473 29.3441 37.826 30.6877 37.7064C31.4125 37.6423 32.1358 37.5786 32.8576 37.5153C33.3325 37.4748 33.8035 37.3964 34.2659 37.2807C34.7096 37.1748 35.1647 37.124 35.6209 37.1296C35.7686 37.1296 35.9236 37.1342 36.0821 37.1428C37.0435 37.1948 37.8915 37.5536 38.7144 37.9004L40.64 38.7158C42.5381 39.517 44.5014 40.3461 46.431 41.1633C48.0499 41.85 49.4158 42.2133 50.7296 42.3077C53.0758 42.4794 54.9859 42.575 56.7381 42.6116C58.5526 42.6494 60.108 43.0316 61.4939 43.7812C61.8754 43.9884 62.2586 44.194 62.6435 44.3981C62.9449 44.5591 63.2465 44.7205 63.5482 44.8822C65.3405 45.8464 67.0309 46.3128 68.7167 46.3128C68.8477 46.3128 68.9805 46.3094 69.1121 46.3042C70.9484 46.2247 71.8102 45.5128 72.185 43.7647C72.419 42.6734 72.6227 41.5518 72.8196 40.4674C72.8871 40.0951 72.9552 39.7226 73.0239 39.3499C73.1955 38.4309 73.6247 37.9765 74.5117 37.7802L75.3563 37.5925C76.4161 37.3568 77.5125 37.113 78.5951 36.887C80.4898 36.491 82.745 36.0652 85.1083 35.909C85.407 35.889 85.7137 35.8627 86.0096 35.8369L86.4336 35.8003H86.4582H87.5718L88.215 36.0292C88.7718 36.2295 89.348 36.4366 89.9139 36.6443C90.1142 36.7061 90.2981 36.8116 90.4524 36.9533L90.6298 37.1302C91.3027 37.7991 91.9992 38.4915 92.667 39.1936C92.9178 39.4513 93.1009 39.7671 93.1999 40.1128C93.299 40.4585 93.3109 40.8233 93.2346 41.1747C93.2186 41.2543 93.2031 41.3332 93.1877 41.4128C93.1488 41.6159 93.1076 41.8259 93.0578 42.0365C92.9771 42.3736 92.8896 42.7129 92.8054 43.0408C92.6338 43.6983 92.4621 44.3787 92.3425 45.0436C92.1708 46.0164 92.5668 46.6567 93.4624 46.8484C93.7387 46.8978 94.0188 46.9225 94.2995 46.9222C94.6177 46.9314 94.9439 46.9343 95.2598 46.9371C95.7639 46.9417 96.2852 46.9468 96.8048 46.9755C97.987 47.0418 98.6462 47.637 98.8803 48.8484C99.1024 50.0532 99.4597 51.2291 99.9452 52.3539C100.274 53.1035 100.647 53.6265 101.119 53.9985C101.7 54.4563 102.391 54.6629 103.357 54.6629C103.505 54.6629 103.658 54.6583 103.825 54.6486C105.617 54.545 107.403 54.0809 108.978 53.6712L109.279 53.5933C109.896 53.432 110.534 53.2655 111.174 53.1241C111.328 53.0882 111.485 53.0691 111.643 53.0669C112.13 53.0669 112.784 53.266 113.135 54.2114C113.167 54.2983 113.192 54.383 113.218 54.4591C113.243 54.5352 113.263 54.6062 113.287 54.668C113.546 55.3324 114.075 55.7793 114.905 56.0328C116.45 56.5049 117.84 56.8837 119.156 57.1904C119.494 57.27 119.848 57.338 120.19 57.4033C120.953 57.5503 121.742 57.702 122.511 57.9967C124.787 58.8688 126.82 60.1924 128.785 61.4724C129.325 61.8238 129.914 62.5053 129.657 63.7568C129.604 64.0189 129.549 64.2806 129.493 64.5419C129.332 65.3018 129.166 66.0869 129.046 66.8595C128.878 67.9421 129.062 68.8434 129.608 69.6148C129.732 69.7991 129.843 69.9927 129.938 70.1939C129.978 70.2717 130.014 70.3449 130.053 70.4147L130.126 70.5487V71.3698L130.117 71.4219C130.111 71.4557 130.104 71.4894 130.097 71.5226C130.087 71.5798 130.076 71.637 130.07 71.68C130.032 71.9958 129.996 72.3197 129.961 72.6327C129.882 73.3457 129.8 74.0828 129.675 74.8072C129.51 75.796 128.967 76.2767 128.016 76.2767C127.958 76.2767 127.897 76.2767 127.835 76.2716C126.623 76.2081 125.4 76.0999 124.217 75.9958L124.166 75.9912C123.93 75.9706 123.708 75.9505 123.494 75.9505C123.279 75.9457 123.064 75.9752 122.857 76.0381C122.258 76.2327 121.811 76.663 121.45 77.3914C120.717 78.8707 120.003 80.319 119.317 81.7673C118.962 82.5164 118.394 82.9358 117.627 83.0142C117.398 83.0377 117.169 83.0714 116.925 83.1075L116.74 83.1349C115.615 83.2975 114.605 83.8033 113.536 84.3366L113.38 84.4145C112.368 84.9203 111.344 85.4479 110.354 85.9595C110.016 86.1335 109.678 86.3072 109.341 86.4808C108.982 86.6645 108.648 86.7543 108.318 86.7543C108.092 86.7533 107.868 86.7126 107.656 86.6342C107.506 86.5776 107.348 86.5479 107.188 86.5466C106.936 86.5447 106.691 86.6332 106.498 86.7961C105.914 87.2755 105.377 87.8106 104.896 88.3938C104.358 89.057 103.752 89.3797 103.036 89.3797C102.915 89.3795 102.794 89.3703 102.674 89.3523C102.527 89.3304 102.379 89.3191 102.23 89.3185C101.386 89.3185 100.723 89.7311 100.206 90.5774C99.6608 91.4701 98.9873 92.1013 98.1455 92.507C97.8022 92.6735 97.448 92.8217 97.1069 92.9648C96.7373 93.1204 96.3888 93.2669 96.0477 93.4352C95.4183 93.7465 94.8071 94.0572 94.2709 94.4417C93.8263 94.7605 93.6701 95.2154 93.8195 95.7579C94.1421 96.9383 94.6973 98.0424 95.4526 99.0053C96.1965 99.9501 97.1321 100.41 98.3195 100.41C98.534 100.409 98.7483 100.395 98.961 100.367C99.2261 100.333 99.4909 100.299 99.7552 100.264C101.57 100.028 103.447 99.7835 105.331 99.7835C105.742 99.7835 106.148 99.7956 106.536 99.8184L106.598 99.8224C106.884 99.8391 107.155 99.8545 107.38 100.078C107.591 100.285 107.625 100.535 107.666 100.848C107.674 100.909 107.677 100.971 107.674 101.032C107.674 101.047 107.674 101.064 107.674 101.085V101.517L107.264 101.654C107.053 101.725 106.842 101.797 106.631 101.871C106.122 102.047 105.597 102.229 105.06 102.379C104.593 102.515 104.109 102.586 103.622 102.591H103.472C101.741 102.591 100.394 103.258 99.3558 104.628C98.8368 105.315 98.1329 105.675 97.3204 105.675C97.2477 105.675 97.1733 105.672 97.0989 105.666C96.9593 105.655 96.8191 105.65 96.6823 105.65C95.515 105.65 94.4277 106.05 93.4503 106.851C93.0692 107.161 92.6916 107.498 92.3265 107.824C92.0632 108.059 91.7909 108.302 91.5151 108.537L91.3125 108.709C90.7059 109.234 90.0181 109.829 89.0602 110.02L89.003 110.032L87.9546 110.048Z" fill="#FED500"/>
<path d="M87.4671 36.4023C88.2138 36.6712 88.9618 36.9385 89.7068 37.2114C89.8248 37.2457 89.9343 37.3041 90.0284 37.3831C90.7689 38.1196 91.5116 38.8549 92.2315 39.6114C92.4168 39.7984 92.5519 40.0292 92.6244 40.2824C92.6968 40.5356 92.7042 40.8029 92.6458 41.0597C92.5886 41.3401 92.5394 41.6222 92.4741 41.9009C92.2321 42.9149 91.9345 43.9186 91.752 44.9435C91.5191 46.2516 92.1417 47.1849 93.3382 47.4413C93.6504 47.4987 93.9672 47.5278 94.2847 47.5282C95.1139 47.5517 95.9442 47.5345 96.7722 47.5809C97.7009 47.6324 98.1158 48.0581 98.2915 48.9674C98.5231 50.2157 98.8938 51.4341 99.3965 52.6C99.7118 53.3193 100.12 53.9796 100.747 54.4752C101.528 55.092 102.423 55.2689 103.358 55.2689C103.524 55.2689 103.692 55.2639 103.861 55.254C105.66 55.1498 107.396 54.7086 109.131 54.2583C109.853 54.07 110.576 53.8772 111.305 53.7158C111.417 53.6901 111.531 53.6764 111.646 53.6752C112.095 53.6752 112.39 53.9252 112.574 54.43C112.632 54.5833 112.671 54.743 112.73 54.8952C113.091 55.8239 113.836 56.3435 114.732 56.617C116.149 57.0502 117.579 57.4491 119.024 57.7855C120.118 58.0408 121.242 58.1615 122.301 58.5678C124.517 59.417 126.489 60.7011 128.463 61.9857C129.083 62.3897 129.214 62.962 129.074 63.6452C128.86 64.6873 128.621 65.7259 128.457 66.7765C128.282 67.9107 128.435 68.9996 129.122 69.9713C129.284 70.2002 129.395 70.4634 129.53 70.7106V71.3257C129.513 71.4225 129.49 71.5186 129.479 71.6159C129.352 72.651 129.262 73.6919 129.09 74.7197C128.972 75.4264 128.681 75.6873 128.024 75.6873C127.976 75.6873 127.925 75.6873 127.873 75.6833C126.667 75.6198 125.464 75.5116 124.261 75.4069C124.007 75.3846 123.754 75.3611 123.502 75.3611C123.223 75.3554 122.946 75.394 122.68 75.4756C121.831 75.7514 121.299 76.3677 120.919 77.1351C120.197 78.5926 119.477 80.0506 118.781 81.5207C118.529 82.0529 118.162 82.3664 117.574 82.4265C117.268 82.458 116.965 82.5061 116.661 82.5501C115.382 82.7361 114.252 83.3238 113.117 83.8903C111.764 84.5672 110.42 85.2637 109.074 85.9584C108.844 86.0866 108.588 86.1576 108.325 86.1655C108.169 86.1651 108.014 86.1367 107.867 86.0814C107.651 86.0012 107.423 85.9593 107.193 85.9578C106.8 85.9561 106.42 86.0936 106.119 86.3458C105.503 86.8501 104.938 87.4134 104.432 88.0276C104.039 88.5117 103.602 88.7909 103.038 88.7909C102.946 88.7907 102.854 88.7836 102.763 88.7697C102.588 88.7435 102.41 88.7301 102.232 88.7297C101.126 88.7297 100.298 89.2899 99.6946 90.2793C99.2437 91.0186 98.6646 91.6069 97.8875 91.9811C97.1979 92.3136 96.4723 92.5728 95.7857 92.9116C95.1459 93.2274 94.5016 93.5553 93.9247 93.9685C93.269 94.4383 93.0281 95.1502 93.2438 95.933C93.5871 97.1904 94.1785 98.3663 94.9834 99.3916C95.8612 100.511 96.9942 101.026 98.3235 101.026C98.5633 101.025 98.8028 101.009 99.0405 100.978C101.133 100.712 103.222 100.4 105.335 100.4C105.724 100.4 106.114 100.411 106.505 100.434C107.007 100.464 107.008 100.441 107.077 100.945C107.08 100.997 107.08 101.049 107.077 101.1C106.356 101.341 105.638 101.611 104.902 101.816C104.488 101.936 104.058 102 103.626 102.006H103.476C101.569 102.006 100.042 102.75 98.8809 104.281C98.4877 104.799 97.9705 105.089 97.3244 105.089C97.2672 105.089 97.2088 105.087 97.1493 105.082C96.9936 105.07 96.8386 105.064 96.6864 105.064C95.3382 105.064 94.1376 105.533 93.075 106.398C92.4083 106.94 91.7834 107.535 91.1294 108.093C90.4753 108.651 89.8424 109.267 88.9463 109.446H88.2699C88.1686 109.302 87.9992 109.168 87.9775 109.012C87.8911 108.407 87.811 107.796 87.8058 107.187C87.7955 106.245 87.8756 105.303 87.8631 104.362C87.8447 102.729 86.781 101.39 85.2308 100.986C84.8702 100.895 84.4994 100.851 84.1275 100.856C83.7515 100.861 83.376 100.885 83.0025 100.929C82.4875 100.981 81.9771 101.038 81.4638 101.093C81.5157 100.999 81.5902 100.918 81.6807 100.859C83.5999 99.4762 85.5198 98.0947 87.4402 96.7141C87.9323 96.3622 88.2985 95.9187 88.4776 95.3447C88.5389 95.1461 88.5486 94.8823 88.4673 94.6992C88.2837 94.2821 87.9523 93.9794 87.4888 93.8844C85.4528 93.4632 83.4071 93.117 81.3287 92.9688C79.2343 92.8172 77.3408 92.1225 75.6939 90.788C75.2067 90.3981 74.6969 90.0371 74.1672 89.7071C73.5896 89.3309 72.9291 89.1011 72.2428 89.0375C72.1364 89.029 72.0305 89.0244 71.9263 89.0244C71.0205 89.0244 70.2016 89.3506 69.4852 89.889C68.5332 90.598 67.6223 91.3605 66.7568 92.1728C65.3657 93.489 64.0318 94.8658 62.6779 96.2208C62.3889 96.5098 62.0759 96.7175 61.6599 96.8033C61.0844 96.9261 60.5595 97.2201 60.1543 97.6468C59.727 98.0916 59.4056 98.6272 59.2141 99.2136C59.0167 99.7893 58.6276 100.115 58.0451 100.214C57.343 100.332 56.7232 100.634 56.1418 101.028C55.7012 101.326 55.2835 101.658 54.8257 101.934C54.4595 102.158 54.1058 102.268 53.7665 102.268C53.2847 102.268 52.832 102.046 52.412 101.61C52.0177 101.201 52.0618 100.661 52.5533 100.351C54.1424 99.3469 54.9327 97.8545 55.1856 96.0468C55.3081 95.1662 55.3481 94.2729 55.4334 93.3882C55.5147 92.5368 55.929 92.1293 56.7604 92.0607C57.811 91.9754 58.8622 91.8993 59.9117 91.798C60.5438 91.7453 61.173 91.6609 61.7966 91.5451C62.8267 91.3402 63.7554 90.1225 62.8427 88.8361C61.3205 86.6908 59.8802 84.4871 58.3878 82.3201C57.862 81.5573 57.7538 80.7751 58.0622 79.9058C58.278 79.2998 58.4628 78.6818 58.6419 78.0632C58.7331 77.7381 58.8051 77.408 58.8576 77.0744C59.0448 75.9425 58.5338 75.1197 57.3584 74.7895C56.6534 74.5909 55.9152 74.5108 55.1919 74.3775C53.2269 74.0158 51.6355 73.0287 50.3611 71.5031C49.794 70.8245 49.1119 70.2929 48.2805 69.9724C47.722 69.7536 47.1276 69.6406 46.5277 69.6394C45.686 69.6394 44.8602 69.8625 44.0562 70.2551C41.3353 71.5827 38.6314 72.9446 35.9259 74.3048C34.7282 74.9062 33.554 75.5534 32.3483 76.136C32.0031 76.3113 31.6225 76.4056 31.2353 76.4118C30.6671 76.4118 30.1258 76.1829 29.6188 75.7337C28.9791 75.1518 28.143 74.8333 27.2783 74.8421C27.0979 74.8425 26.9176 74.8543 26.7387 74.8776C26.0904 74.9606 25.4518 75.1197 24.8028 75.1992C24.3622 75.2511 23.9189 75.2764 23.4753 75.2747C22.4143 75.2747 21.358 75.1494 20.3005 75.0418C19.7037 74.9846 19.1085 74.9234 18.518 74.9234C17.5864 74.9234 16.668 75.0687 15.7781 75.5792C15.5939 74.445 14.9146 73.6994 13.9922 73.1437C13.5104 72.8536 13.0034 72.6035 12.5278 72.3048C12.2577 72.1332 12.0271 71.9043 11.7788 71.6983V71.2062C11.9035 70.8628 12.0346 70.5195 12.1525 70.1761C12.5204 69.0889 12.8729 68.0016 13.2534 66.9218C13.4823 66.2746 13.943 65.8563 14.6022 65.6349C14.7899 65.5719 15.0125 65.4272 15.0909 65.2601C15.278 64.8595 15.4617 64.4338 15.5149 64.0012C15.6293 63.0644 15.7644 62.138 16.0694 61.2401C16.6989 59.3907 17.8359 57.9086 19.3346 56.6846C20.7148 55.5567 22.0985 54.434 23.4764 53.3038C23.9914 52.8804 24.2935 52.323 24.313 51.6581C24.3241 51.0442 24.3036 50.4301 24.2518 49.8183C24.1877 48.96 23.9205 48.2 23.2544 47.5809C22.7874 47.1466 22.2856 46.6653 22.0384 46.0965C21.5091 44.8839 21.1348 43.6033 20.6736 42.2843C21.3437 42.2271 21.9525 42.1504 22.562 42.1275C23.786 42.0823 24.6506 41.5553 25.0632 40.3679C25.1508 40.1172 25.2463 39.8689 25.3425 39.6211C25.5713 39.0288 25.9908 38.7158 26.6386 38.6632C28.7301 38.4915 30.8199 38.2981 32.9103 38.1167C33.417 38.0732 33.9195 37.9894 34.4129 37.8661C34.8091 37.7731 35.2152 37.7285 35.6221 37.7333C35.7657 37.7333 35.9082 37.7379 36.0507 37.7459C36.9188 37.7928 37.7182 38.135 38.5113 38.4698C41.073 39.5521 43.6351 40.6347 46.1975 41.7178C47.6379 42.3283 49.1239 42.7959 50.6867 42.9097C52.697 43.0557 54.7118 43.173 56.7261 43.2147C58.3157 43.2474 59.8098 43.5581 61.2084 44.3123C61.8922 44.6819 62.5818 45.0453 63.2644 45.4138C64.9754 46.3346 66.7711 46.9188 68.7173 46.9188C68.8569 46.9188 68.9971 46.9154 69.1384 46.9097C71.2259 46.8192 72.3372 45.9277 72.7733 43.8957C73.0886 42.4262 73.3415 40.943 73.615 39.4643C73.7392 38.7954 73.9858 38.5173 74.6416 38.3719C76.0001 38.0709 77.3568 37.7648 78.7188 37.4798C80.8435 37.0363 82.9785 36.6575 85.149 36.5139C85.5942 36.4841 86.0388 36.4412 86.4834 36.4046H87.4677M87.6771 35.2029H86.4336L86.3839 35.2069C86.2419 35.2183 86.0977 35.2309 85.9581 35.2435C85.6514 35.2698 85.3613 35.295 85.0689 35.3145C82.6683 35.4735 80.3874 35.9039 78.4721 36.3039C77.3849 36.5328 76.2862 36.7754 75.2235 37.0117L74.3812 37.1983C73.2648 37.446 72.6456 38.0961 72.4356 39.2457C72.3658 39.62 72.2971 39.9999 72.2302 40.3673C72.0345 41.4465 71.8296 42.563 71.6007 43.6433C71.2837 45.1203 70.6503 45.6416 69.0886 45.7091C68.9662 45.7143 68.842 45.7171 68.7196 45.7171C67.1356 45.7171 65.5385 45.2713 63.8361 44.3558C63.5359 44.194 63.2349 44.0328 62.9331 43.8722C62.5549 43.6702 62.1646 43.4614 61.7823 43.2554C60.3105 42.4594 58.6659 42.0537 56.7535 42.013C55.0122 41.977 53.113 41.8809 50.776 41.7109C49.5302 41.6205 48.225 41.2709 46.6685 40.6116C44.7515 39.7991 42.8019 38.9762 40.9158 38.1796C40.2707 37.9073 39.6258 37.6349 38.9811 37.3625L38.9496 37.3493C38.1222 36.9997 37.1837 36.6054 36.1182 36.5482C35.9465 36.539 35.7823 36.5339 35.6244 36.5339C35.1189 36.5291 34.6147 36.5868 34.1234 36.7056C33.6912 36.8135 33.2511 36.8866 32.8072 36.9242C32.0822 36.9877 31.3463 37.0529 30.6328 37.1164C29.2903 37.236 27.9026 37.3591 26.539 37.4706C25.4386 37.5605 24.6152 38.1716 24.2197 39.1919C24.1133 39.4672 24.0177 39.7161 23.9267 39.9788C23.7362 40.5264 23.4232 40.8983 22.5162 40.9321C22.0636 40.9487 21.6327 40.9893 21.1766 41.0351C20.9792 41.0546 20.776 41.0746 20.5689 41.0923L19.0238 41.2245L19.5348 42.686C19.667 43.0648 19.7952 43.4488 19.9188 43.8202C20.2227 44.7329 20.5368 45.6759 20.9322 46.5823C21.2647 47.3434 21.8553 47.9305 22.4321 48.4661C22.8155 48.8226 22.9997 49.2552 23.0484 49.9127C23.0967 50.4836 23.1158 51.0566 23.1056 51.6294C23.1004 51.8166 23.0529 52.0981 22.7079 52.3814C21.8598 53.0772 20.9912 53.7822 20.1569 54.4643L18.5683 55.7598C17.7516 56.4198 17.0224 57.1813 16.3984 58.0259C15.7668 58.8906 15.2702 59.8463 14.9255 60.8602C14.5793 61.8787 14.4345 62.9007 14.3161 63.8604C14.2909 64.0641 14.1971 64.309 14.0929 64.5471C13.1287 64.9053 12.4454 65.5891 12.1135 66.531C11.8686 67.2268 11.6329 67.933 11.4051 68.6162C11.2752 69.0042 11.1413 69.4059 11.008 69.7979C10.933 70.0193 10.8512 70.2396 10.7648 70.4731C10.724 70.583 10.6835 70.6929 10.6435 70.8027L10.5708 71.0019V72.2734L11.0091 72.6339C11.0715 72.6854 11.1373 72.7432 11.2077 72.8055C11.4178 72.9986 11.6432 73.1743 11.8818 73.3309C12.1731 73.5134 12.4638 73.6742 12.7453 73.8293C12.9633 73.9494 13.1687 74.0627 13.3656 74.1818C14.1021 74.6253 14.478 75.1179 14.5856 75.78L14.8637 77.4967L16.3698 76.6321C16.9678 76.2887 17.6287 76.136 18.5117 76.136C19.0622 76.136 19.6522 76.1932 20.1712 76.2504C20.3045 76.2636 20.4373 76.2773 20.5717 76.2916C21.5102 76.3889 22.4801 76.489 23.4684 76.489C23.9606 76.491 24.4525 76.4627 24.9413 76.4043C25.3121 76.3591 25.6663 76.2933 26.0091 76.2292C26.3147 76.172 26.6031 76.1182 26.8846 76.0822C27.0129 76.0653 27.1421 76.0567 27.2715 76.0564C27.8419 76.0479 28.3938 76.2584 28.8136 76.6447C29.5467 77.2959 30.3587 77.626 31.2285 77.626C31.797 77.62 32.3567 77.4846 32.865 77.2301C33.5786 76.8867 34.2853 76.5153 34.9686 76.1583C35.4573 75.903 35.962 75.6393 36.4564 75.3903L37.479 74.8753C39.8017 73.7091 42.2028 72.5028 44.5747 71.3452C45.2465 71.0173 45.9005 70.8514 46.5203 70.8514C46.9722 70.852 47.4201 70.9376 47.8404 71.1037C48.4407 71.3326 48.9614 71.7212 49.4312 72.2837C50.919 74.0616 52.7794 75.1672 54.967 75.57C55.2039 75.6135 55.4391 75.6513 55.6669 75.6879C56.1244 75.7518 56.5779 75.8414 57.0253 75.9563C57.2251 76.0135 57.4877 76.1165 57.6022 76.2945C57.708 76.4575 57.6943 76.7076 57.6645 76.889C57.6201 77.1757 57.5586 77.4595 57.4803 77.7388C57.3223 78.2824 57.1369 78.9124 56.9229 79.5127C56.484 80.7464 56.6414 81.9235 57.3904 83.0113C57.9707 83.8537 58.5544 84.7178 59.1186 85.5538C60.0038 86.8659 60.9194 88.2221 61.855 89.5405C62.061 89.8312 62.0009 89.9829 61.9809 90.0327C61.9408 90.1186 61.8815 90.1943 61.8076 90.2538C61.7337 90.3133 61.6471 90.3551 61.5546 90.376C60.9686 90.4905 60.3609 90.5563 59.7887 90.6118C59.0316 90.685 58.2557 90.7462 57.5055 90.8052L56.6557 90.8727C55.9501 90.9299 55.3796 91.1714 54.9602 91.5891C54.5407 92.0069 54.2975 92.5745 54.2294 93.283C54.1985 93.6057 54.1722 93.929 54.1493 94.242C54.1047 94.8143 54.0623 95.3562 53.9879 95.8906C53.8803 96.6654 53.6589 97.3412 53.3293 97.8992C52.9791 98.4896 52.4905 98.9859 51.9056 99.3452C51.3631 99.6885 51.0249 100.204 50.9528 100.798C50.8807 101.392 51.0959 101.992 51.5405 102.454C52.3576 103.303 53.2 103.481 53.7608 103.481C54.3216 103.481 54.8915 103.309 55.446 102.971C55.767 102.775 56.06 102.565 56.3438 102.361C56.5041 102.247 56.6563 102.137 56.8085 102.034C57.3235 101.686 57.7761 101.488 58.2391 101.41C59.2593 101.238 60.0073 100.6 60.3449 99.6142C60.4781 99.197 60.7045 98.8156 61.007 98.4989C61.2445 98.2427 61.5548 98.0655 61.8962 97.9913C62.5034 97.8666 63.035 97.569 63.5219 97.0809C63.8773 96.7261 64.2355 96.3639 64.5823 96.0142C65.5551 95.0317 66.5628 94.016 67.5773 93.0564C68.4094 92.2751 69.2854 91.542 70.201 90.8607C70.7521 90.447 71.3307 90.2369 71.9206 90.2369C71.9922 90.2369 72.0654 90.2398 72.1381 90.2461C72.6084 90.285 73.0605 90.4447 73.52 90.7342C74.01 91.0388 74.4814 91.3722 74.9317 91.7328C76.7211 93.1822 78.8424 94.0051 81.2366 94.1785C82.9899 94.305 84.8989 94.5899 87.2393 95.0741C87.2581 95.077 87.2759 95.0842 87.2914 95.0952C87.193 95.3401 87.0144 95.553 86.7352 95.7499C85.2628 96.8039 83.7699 97.8803 82.329 98.9212L80.9745 99.8968C80.7358 100.064 80.5398 100.285 80.4023 100.542L79.3351 102.545L81.5914 102.302L82.0663 102.25C82.4131 102.213 82.7719 102.173 83.1227 102.136C83.4735 102.099 83.8042 102.07 84.1264 102.07C84.3951 102.065 84.6632 102.096 84.9241 102.16C85.9655 102.434 86.6459 103.309 86.658 104.392C86.6625 104.833 86.6465 105.276 86.6288 105.744C86.6116 106.222 86.5933 106.717 86.5984 107.216C86.6065 107.903 86.694 108.571 86.7833 109.198C86.8485 109.656 87.11 109.956 87.2502 110.118L87.2891 110.163L87.6428 110.665H89.0613L89.1758 110.642C90.2894 110.419 91.0407 109.769 91.7039 109.195C91.7699 109.138 91.8363 109.081 91.903 109.023C92.1834 108.784 92.4587 108.539 92.7242 108.301C93.1013 107.965 93.4572 107.647 93.8269 107.346C94.707 106.63 95.6397 106.282 96.68 106.282C96.8014 106.282 96.9261 106.287 97.0503 106.297C97.1401 106.304 97.23 106.307 97.3181 106.307C98.3258 106.307 99.195 105.863 99.8319 105.022C100.762 103.795 101.918 103.224 103.47 103.224H103.62C104.162 103.219 104.701 103.14 105.222 102.99C105.776 102.835 106.31 102.646 106.828 102.47C107.034 102.399 107.248 102.325 107.454 102.256L108.275 101.981V101.116C108.275 101.102 108.275 101.09 108.275 101.08C108.279 100.986 108.275 100.891 108.262 100.798C108.216 100.455 108.157 100.033 107.801 99.6817C107.415 99.2994 106.962 99.2731 106.631 99.2537L106.571 99.2502C106.17 99.2262 105.753 99.2142 105.329 99.2142C103.407 99.2142 101.51 99.4614 99.6763 99.7L98.8843 99.8024C98.6968 99.827 98.508 99.8397 98.3189 99.8402C97.3135 99.8402 96.5524 99.4671 95.9241 98.666C95.218 97.7657 94.699 96.7334 94.3974 95.6297C94.3145 95.3275 94.3785 95.1341 94.62 94.9613C95.119 94.6037 95.7073 94.305 96.3127 94.0057C96.6371 93.8455 96.9782 93.7018 97.3387 93.5479C97.6866 93.4014 98.046 93.2503 98.4053 93.077C99.3404 92.6255 100.117 91.8999 100.716 90.9191C101.242 90.0556 101.803 89.9463 102.228 89.9463C102.347 89.9468 102.466 89.9559 102.584 89.9737C102.733 89.9959 102.883 90.0072 103.034 90.0075C103.927 90.0075 104.71 89.6012 105.36 88.7995C105.817 88.2469 106.327 87.74 106.882 87.2859C106.966 87.2114 107.075 87.1707 107.188 87.1715C107.278 87.1731 107.366 87.1903 107.45 87.2224C107.728 87.3254 108.022 87.3784 108.318 87.3792C108.746 87.3792 109.17 87.2648 109.615 87.0393L110.626 86.5191C111.615 86.0093 112.639 85.4817 113.648 84.9775L113.805 84.8986C114.83 84.3836 115.798 83.9006 116.827 83.7541L117.013 83.7266C117.25 83.6917 117.471 83.6585 117.689 83.6362C118.37 83.567 119.299 83.2357 119.861 82.0489C120.543 80.6068 121.257 79.1608 121.989 77.6827C122.359 76.9388 122.747 76.7305 123.044 76.6338C123.19 76.5912 123.343 76.5719 123.495 76.5766C123.682 76.5766 123.892 76.5955 124.114 76.6149H124.148H124.166C125.354 76.7196 126.583 76.8284 127.804 76.8924C127.877 76.8959 127.948 76.8982 128.017 76.8982C128.661 76.8982 129.165 76.7265 129.558 76.3683C129.93 76.0318 130.162 75.5609 130.269 74.9274C130.393 74.1835 130.476 73.4396 130.555 72.7169C130.59 72.4056 130.625 72.084 130.663 71.771C130.666 71.7458 130.675 71.7 130.684 71.6565C130.691 71.6205 130.698 71.5838 130.705 71.5478L130.723 71.4431V70.4062L130.578 70.1378C130.544 70.076 130.509 70.0068 130.472 69.9335C130.363 69.7054 130.237 69.486 130.095 69.2771C129.637 68.6311 129.492 67.8952 129.637 66.9613C129.755 66.206 129.911 65.4632 130.078 64.6764C130.132 64.4183 130.189 64.1516 130.243 63.8873C130.587 62.2209 129.68 61.3494 129.11 60.9786C127.118 59.6814 125.058 58.3406 122.723 57.4456C121.904 57.1315 121.089 56.9747 120.301 56.823C119.949 56.7555 119.617 56.692 119.29 56.6153C117.987 56.3115 116.609 55.9361 115.078 55.4709C114.22 55.2093 113.964 54.7704 113.844 54.4626C113.828 54.4202 113.809 54.3584 113.787 54.2909C113.761 54.2085 113.73 54.1147 113.694 54.0128C113.525 53.555 113.281 53.1956 112.965 52.9364C112.591 52.6317 112.121 52.468 111.639 52.4741C111.437 52.4754 111.236 52.4986 111.039 52.5433C110.389 52.6869 109.745 52.8552 109.122 53.0177L108.823 53.0955C107.274 53.4961 105.518 53.9539 103.787 54.0546C103.632 54.0637 103.49 54.0677 103.354 54.0677C102.532 54.0677 101.957 53.9029 101.489 53.5327C101.097 53.2237 100.781 52.7745 100.493 52.1181C100.025 51.0348 99.6813 49.9023 99.4674 48.7419C99.3278 48.0181 99.0543 47.4739 98.632 47.0779C98.1782 46.6527 97.5905 46.4255 96.8351 46.3832C96.3029 46.3534 95.7748 46.3483 95.2638 46.3437C94.9508 46.3437 94.6274 46.338 94.315 46.3288C94.0709 46.3295 93.8272 46.3092 93.5865 46.2682C93.1803 46.1812 92.7854 45.9821 92.9319 45.1563C93.0464 44.5114 93.2117 43.8722 93.3857 43.1953C93.471 42.8651 93.5574 42.524 93.6404 42.1819C93.6936 41.9587 93.7353 41.7424 93.776 41.5329C93.7914 41.4551 93.8063 41.3767 93.8218 41.2989C93.9184 40.8529 93.9031 40.39 93.7773 39.9513C93.6515 39.5127 93.4191 39.112 93.1007 38.7851C92.4272 38.0772 91.7274 37.3825 91.0527 36.7107L90.8742 36.5333C90.6589 36.3298 90.4008 36.1769 90.1188 36.0858C89.5529 35.8781 88.9778 35.6715 88.4216 35.4713L87.8722 35.2738L87.6748 35.2029H87.6771Z" fill="white"/>
<path d="M124.917 139.498L124.443 136.935H118.672V115.401H122.935V119.823C122.935 120.891 122.94 121.978 122.947 123.028C122.961 125.611 122.976 128.281 122.904 130.911C122.887 131.544 122.973 131.949 123.168 132.148C123.339 132.32 123.664 132.407 124.167 132.407C124.252 132.407 124.343 132.407 124.437 132.4C125.176 132.362 125.976 132.343 126.955 132.343C127.577 132.343 128.198 132.35 128.856 132.357C129.359 132.362 129.875 132.368 130.405 132.37V115.536H134.849V136.687L129.224 136.962L128.616 139.498H124.917Z" fill="white"/>
<path d="M122.362 115.973C122.362 117.295 122.362 118.559 122.362 119.824C122.362 123.515 122.433 127.206 122.332 130.897C122.29 132.433 122.812 132.981 124.167 132.981C124.263 132.981 124.362 132.981 124.467 132.973C125.288 132.931 126.111 132.915 126.954 132.915C128.227 132.915 129.546 132.944 130.975 132.944V116.108H134.275V136.142L128.766 136.412C128.57 137.229 128.38 138.02 128.163 138.926H125.393C125.236 138.078 125.101 137.342 124.919 136.363H119.244V115.973H122.362ZM123.507 114.829H118.1V137.508H123.967L124.267 139.135L124.439 140.071H129.064L129.274 139.193L129.482 138.329L129.677 137.513L132.642 137.368L134.33 137.285L135.417 137.232V114.963H129.828V131.797L128.855 131.788C128.195 131.781 127.573 131.774 126.948 131.774C125.961 131.774 125.152 131.792 124.402 131.831C124.318 131.836 124.237 131.837 124.162 131.837C123.719 131.837 123.586 131.761 123.572 131.752C123.557 131.742 123.453 131.561 123.47 130.929C123.542 128.29 123.528 125.614 123.513 123.026C123.507 121.976 123.501 120.891 123.501 119.824C123.501 118.953 123.501 118.081 123.501 117.192V114.829H123.507Z" fill="white"/>
<path d="M73.1818 115.348H78.7056L83.9272 132.089L89.1483 115.348H94.6721L86.3175 138.924H81.501L73.1818 115.348Z" fill="white" stroke="white" stroke-width="1.14447" stroke-miterlimit="10"/>
<path d="M98.6691 138.926V115.35H114.331V119.493H103.89V125.287H112.95V129.43H103.89V138.929L98.6691 138.926Z" fill="white" stroke="white" stroke-width="1.14447" stroke-miterlimit="10"/>
<path d="M150.604 113.338C149.903 114.131 149.516 115.152 149.517 116.21C149.557 118.628 149.853 121.042 149.88 123.459C149.933 125.713 149.257 127.828 148.435 129.893C148.162 130.465 147.863 131.022 147.569 131.581L146.697 131.405C146.344 131.335 146.03 131.137 145.815 130.848C145.601 130.56 145.501 130.202 145.535 129.844C145.57 129.486 145.736 129.153 146.002 128.911C146.268 128.669 146.615 128.534 146.974 128.533L147.292 128.568L146.583 122.655C146.448 121.172 145.951 119.745 145.136 118.499C144.32 117.253 143.211 116.227 141.907 115.51V136.511H146.754C147.111 138.441 148.168 140.171 149.721 141.37C150.084 141.62 150.386 141.949 150.604 142.333C150.822 141.949 151.124 141.62 151.487 141.37C153.041 140.171 154.097 138.441 154.455 136.511H159.301V115.51C157.996 116.227 156.887 117.254 156.072 118.5C155.256 119.747 154.759 121.174 154.624 122.657L153.916 128.57L154.234 128.536C154.592 128.538 154.938 128.674 155.203 128.916C155.468 129.158 155.633 129.489 155.668 129.847C155.703 130.204 155.603 130.561 155.39 130.849C155.176 131.138 154.863 131.337 154.511 131.408L153.639 131.583C153.343 131.024 153.047 130.466 152.773 129.896C151.951 127.831 151.275 125.715 151.328 123.462C151.354 121.044 151.651 118.631 151.691 116.212C151.692 115.154 151.305 114.132 150.604 113.34V113.338ZM143.356 118.532C144.318 119.659 144.928 121.043 145.112 122.513L145.695 127.39C145.323 127.575 144.995 127.837 144.733 128.16C144.471 128.482 144.282 128.857 144.177 129.259H143.357V118.532H143.356ZM157.851 118.532V129.259H157.031C156.926 128.857 156.737 128.482 156.475 128.16C156.213 127.838 155.885 127.575 155.514 127.39L156.097 122.513C156.28 121.043 156.89 119.659 157.851 118.532ZM150.604 128.336C150.99 129.597 151.524 130.807 152.195 131.941C151.57 132.131 151.015 132.503 150.604 133.012C150.193 132.504 149.639 132.131 149.013 131.941C149.685 130.807 150.219 129.597 150.604 128.336ZM143.356 130.709H144.177C144.305 131.201 144.56 131.651 144.917 132.014C145.274 132.377 145.72 132.64 146.21 132.776L146.906 132.935C146.716 133.627 146.62 134.341 146.62 135.058H143.358L143.356 130.709ZM157.032 130.709H157.853V135.058H154.591C154.592 134.34 154.496 133.626 154.305 132.934L155.002 132.775C155.492 132.639 155.938 132.376 156.295 132.013C156.652 131.651 156.907 131.201 157.035 130.708L157.032 130.709ZM148.322 133.269C148.754 133.33 149.149 133.544 149.435 133.873C149.721 134.202 149.879 134.623 149.88 135.058H148.068C148.069 134.453 148.155 133.851 148.322 133.269ZM152.887 133.269C153.055 133.851 153.141 134.453 153.142 135.058H151.33C151.33 134.623 151.488 134.202 151.774 133.873C152.06 133.544 152.456 133.33 152.887 133.269ZM148.231 136.511H149.879V139.563C149.065 138.713 148.495 137.658 148.231 136.511ZM151.328 136.511H152.976C152.713 137.658 152.143 138.713 151.328 139.563V136.511Z" fill="white"/>
<path d="M79.7779 9.38399L83.0258 2.65416L81.6947 2.50485L79.3503 7.68411L78.2117 2.11417L76.8806 1.96486C77.4274 4.40781 77.9999 6.80296 78.5468 9.2459L79.7779 9.38399Z" fill="white"/>
<path d="M83.2746 6.23172C82.8552 8.19153 84.1486 10.1368 86.1182 10.5584C88.0879 10.9799 90.0642 9.73437 90.4836 7.77455C90.903 5.81474 89.6097 3.86944 87.64 3.4479C85.6703 3.02636 83.6941 4.2719 83.2746 6.23172ZM84.5549 6.50572C84.8521 5.11711 86.1251 4.31841 87.3955 4.5903C88.6659 4.86219 89.5005 6.11194 89.2033 7.50055C88.9061 8.88916 87.6332 9.68787 86.3627 9.41597C85.0923 9.14408 84.2577 7.89433 84.5549 6.50572Z" fill="white"/>
<path d="M92.4589 11.0719L94.2657 5.35036L93.041 4.96362L90.926 11.6611L95.1933 13.0086L95.5014 12.0327L92.4589 11.0719Z" fill="white"/>
<path d="M102.686 8.40554L100.993 12.4789C100.571 13.4926 99.6928 13.7165 98.9209 13.3957C98.1397 13.071 97.6882 12.2943 98.1095 11.2806L99.8026 7.20724L98.6122 6.71246L96.9191 10.7858C96.2272 12.4505 97.0542 13.8195 98.4957 14.4187C99.9186 15.0101 101.491 14.6384 102.183 12.9737L103.876 8.90033L102.686 8.40554Z" fill="white"/>
<path d="M106.892 18.4024L107.743 18.8665L111.127 12.6626L109.992 12.0438L107.725 16.2004L106.926 10.3711L106.066 9.90222L102.682 16.1062L103.816 16.7249L106.098 12.5417L106.892 18.4024Z" fill="white"/>
<path d="M112.575 13.5555L111.995 14.4165L113.783 15.6235L110.416 20.6139L111.486 21.3358L114.853 16.3454L116.659 17.5636L117.24 16.7026L112.575 13.5555Z" fill="white"/>
<path d="M117.698 26.0604L118.339 25.258L115.767 23.2016L116.962 21.707L119.204 23.4993L119.845 22.6969L117.603 20.9046L118.88 19.3077L121.452 21.3641L122.1 20.5538L118.521 17.6924L114.118 23.199L117.698 26.0604Z" fill="white"/>
<path d="M122.035 30.1035L122.74 29.3567L120.346 27.0955L121.659 25.7043L123.746 27.675L124.452 26.9281L122.365 24.9574L123.768 23.4709L126.163 25.7321L126.875 24.9779L123.543 21.8316L118.703 26.9573L122.035 30.1035Z" fill="white"/>
<path d="M126.53 29.6289L128.302 28.06L129.33 29.2213C129.764 29.7114 129.674 30.3694 129.161 30.8234C128.641 31.2841 128.005 31.2954 127.558 30.7901L126.53 29.6289ZM130.021 31.8104C130.926 31.0093 131.191 29.7125 130.263 28.6644L128.246 26.3871L122.968 31.0604L123.822 32.0256L125.76 30.3098L126.548 31.1996C125.998 31.794 124.915 33.4262 126.016 34.6704C126.417 35.1228 126.827 35.2976 127.358 35.3656L127.721 34.4387C127.451 34.4223 127.18 34.2988 126.973 34.0651C126.473 33.4995 126.903 32.6339 127.382 32.0352C128.232 32.6148 129.245 32.498 130.021 31.8104Z" fill="white"/>
<path d="M128.533 34.8183C127.743 35.6369 127.763 36.9786 128.571 38.0744C129.373 39.1621 130.636 39.6608 131.724 38.8586C132.272 38.4546 132.712 37.5831 132.25 36.2318L131.981 35.3106C131.747 34.5378 131.995 34.2675 132.189 34.1249C132.64 33.7921 133.137 34.0104 133.475 34.4696C133.778 34.8805 133.917 35.3882 133.479 36.0094L134.483 36.6122C135.099 35.7602 135.089 34.7349 134.394 33.7922C133.639 32.769 132.403 32.3746 131.412 33.1055C130.945 33.4501 130.354 34.1842 130.847 35.6619L131.132 36.5712C131.317 37.1934 131.251 37.6274 130.929 37.8651C130.478 38.1978 129.897 37.9669 129.463 37.3787C129.012 36.7664 129.037 36.0758 129.432 35.5984L128.533 34.8183Z" fill="white"/>
<path d="M132.943 44.3197L135.502 42.8493L136.937 45.3465L137.831 44.8329L136.395 42.3357L138.174 41.3134L139.821 44.1786L140.723 43.66L138.432 39.6732L132.299 43.1982L132.943 44.3197Z" fill="white"/>
<path d="M138.081 46.3258C136.257 47.1475 135.458 49.3378 136.284 51.1708C137.11 53.0038 139.28 53.8562 141.104 53.0345C142.928 52.2128 143.727 50.0225 142.901 48.1895C142.075 46.3565 139.905 45.5041 138.081 46.3258ZM138.618 47.5172C139.91 46.935 141.305 47.4862 141.838 48.6685C142.371 49.8508 141.859 51.2608 140.567 51.8431C139.275 52.4253 137.88 51.8741 137.347 50.6918C136.814 49.5095 137.326 48.0995 138.618 47.5172Z" fill="white"/>
<path d="M142.146 55.7744L144.396 55.0383L144.878 56.5124C145.082 57.1345 144.738 57.7027 144.087 57.9157C143.427 58.1319 142.839 57.8898 142.629 57.2485L142.146 55.7744ZM144.485 59.1632C145.633 58.7873 146.391 57.7023 145.955 56.3718L145.01 53.4811L138.309 55.6737L138.71 56.8989L141.17 56.0939L141.54 57.2234C140.799 57.5505 139.156 58.618 139.673 60.1973C139.861 60.7716 140.168 61.095 140.628 61.3683L141.33 60.6619C141.088 60.5395 140.889 60.3187 140.792 60.0219C140.557 59.3041 141.296 58.6807 141.973 58.3213C142.523 59.1906 143.499 59.4858 144.485 59.1632Z" fill="white"/>
<path d="M148.701 67.7499L144.362 68.5424C143.282 68.7396 142.617 68.124 142.467 67.3017C142.315 66.4695 142.721 65.6683 143.801 65.4711L148.141 64.6786L147.909 63.4104L143.569 64.203C141.796 64.5268 141.096 65.9651 141.377 67.5007C141.654 69.0166 142.82 70.1345 144.594 69.8106L148.933 69.018L148.701 67.7499Z" fill="white"/>
<path d="M145.508 72.966L143.702 74.3369C143.049 74.7945 142.393 75.4552 142.469 76.412C142.501 76.8148 142.653 77.3196 142.975 77.6689C143.274 77.4828 143.544 77.3091 143.844 77.1331C143.631 76.8765 143.594 76.6565 143.583 76.5256C143.55 76.1126 143.729 75.9463 144.335 75.4113L145.918 74.1697L149.504 76.2951L149.665 76.2823L149.558 74.9428L146.032 72.9241L149.375 72.6566L149.272 71.3674L142.222 71.9314L142.325 73.2206L145.508 72.966Z" fill="white"/>
<path d="M146.287 79.7294L148.654 79.7678L148.629 81.3186C148.618 81.9731 148.107 82.398 147.423 82.3869C146.728 82.3756 146.251 81.9549 146.262 81.2802L146.287 79.7294ZM147.391 83.6958C148.6 83.7154 149.67 82.937 149.693 81.5373L149.742 78.4962L142.693 78.3817L142.672 79.6707L145.26 79.7127L145.241 80.901C144.434 80.9685 142.533 81.4412 142.506 83.1028C142.496 83.707 142.681 84.1129 143.027 84.5214L143.92 84.0826C143.732 83.8882 143.615 83.6144 143.621 83.3022C143.633 82.5469 144.535 82.199 145.292 82.0803C145.528 83.0813 146.354 83.679 147.391 83.6958Z" fill="white"/>
<path d="M142.436 85.8314L143.75 86.4779L143.44 89.5489L142.021 89.9393L141.889 91.2455L149.142 89.2385L149.276 87.9124L142.569 84.5153L142.436 85.8314ZM144.514 89.2847L144.751 86.9416L147.912 88.4495L144.514 89.2847Z" fill="white"/>
<path d="M148.412 94.6921L148.635 93.4223L141.69 92.2066L141.468 93.4764L148.412 94.6921Z" fill="white"/>
<path d="M140.009 99.8583L139.772 100.796L146.607 102.523L146.923 101.273L142.343 100.116L147.776 97.8944L148.016 96.9472L141.18 95.2202L140.865 96.4701L145.474 97.6346L140.009 99.8583Z" fill="white"/>
<path d="M137.658 106.774L138.623 107.123L139.743 104.027L141.542 104.678L140.566 107.376L141.531 107.725L142.507 105.027L144.429 105.722L143.309 108.818L144.284 109.171L145.843 104.863L139.216 102.466L137.658 106.774Z" fill="white"/>
</svg>
