<svg width="117" height="39" viewBox="0 0 117 39" fill="none" xmlns="http://www.w3.org/2000/svg">
<path d="M104.804 0.25C103.873 1.30217 103.36 2.65873 103.361 4.0636C103.414 7.27466 103.807 10.4789 103.842 13.6892C103.913 16.6814 103.016 19.4905 101.924 22.232C101.561 22.9918 101.165 23.7311 100.774 24.4735L99.6168 24.2395C99.1483 24.1469 98.7308 23.8835 98.4457 23.5004C98.1606 23.1173 98.0281 22.6419 98.0739 22.1665C98.1198 21.6911 98.3407 21.2498 98.6938 20.9282C99.0469 20.6067 99.507 20.4279 99.9846 20.4266L100.406 20.473L99.4656 12.6209C99.2862 10.6519 98.6261 8.7572 97.5433 7.10301C96.4605 5.44881 94.9881 4.08576 93.2555 3.13356V31.0195H99.692C100.166 33.5819 101.569 35.8794 103.632 37.472C104.114 37.8039 104.515 38.2409 104.804 38.75C105.094 38.2409 105.495 37.804 105.977 37.472C108.04 35.8793 109.443 33.5818 109.917 31.0195H116.352V3.13356C114.619 4.08641 113.147 5.45003 112.064 7.10471C110.981 8.7594 110.321 10.6546 110.142 12.6239L109.202 20.476L109.624 20.4304C110.1 20.4334 110.559 20.6129 110.911 20.9343C111.262 21.2558 111.483 21.6962 111.528 22.1706C111.574 22.6449 111.443 23.1194 111.159 23.5022C110.875 23.8851 110.459 24.1491 109.992 24.2433L108.834 24.4765C108.441 23.7342 108.048 22.9933 107.684 22.2358C106.593 19.4943 105.695 16.6844 105.766 13.6922C105.8 10.4819 106.195 7.2777 106.248 4.06664C106.249 2.66145 105.736 1.3045 104.804 0.252282V0.25ZM95.1801 7.14625C96.4568 8.64307 97.2673 10.481 97.5113 12.4332L98.2856 18.9085C97.7918 19.154 97.3564 19.5026 97.0088 19.9307C96.6612 20.3588 96.4094 20.8564 96.2705 21.3901H95.1809V7.14625H95.1801ZM114.427 7.14625V21.3901H113.339C113.199 20.8566 112.947 20.3591 112.6 19.9311C112.252 19.503 111.817 19.1543 111.324 18.9085L112.098 12.4332C112.341 10.4811 113.151 8.64302 114.427 7.14625ZM104.804 20.1652C105.316 21.839 106.026 23.446 106.917 24.9522C106.086 25.2034 105.35 25.6984 104.804 26.3731C104.258 25.6985 103.522 25.2035 102.692 24.9522C103.584 23.4461 104.293 21.8391 104.804 20.1652ZM95.1801 23.3155H96.2697C96.4403 23.9693 96.7794 24.5668 97.2531 25.0485C97.7268 25.5303 98.3186 25.8793 98.9694 26.0608L99.8941 26.2713C99.6413 27.1898 99.5135 28.1383 99.5142 29.091H95.1832L95.1801 23.3155ZM113.34 23.3155H114.43V29.0902H110.099C110.1 28.1373 109.972 27.1885 109.719 26.2697L110.644 26.0593C111.295 25.878 111.887 25.5292 112.361 25.0476C112.834 24.566 113.173 23.9685 113.344 23.3148L113.34 23.3155ZM101.775 26.715C102.348 26.7957 102.872 27.0804 103.252 27.5169C103.632 27.9534 103.842 28.5123 103.843 29.091H101.437C101.438 28.2871 101.552 27.4874 101.775 26.715ZM107.836 26.715C108.059 27.4874 108.172 28.2871 108.174 29.091H105.768C105.769 28.5123 105.978 27.9534 106.358 27.5169C106.738 27.0804 107.263 26.7957 107.836 26.715ZM101.653 31.0195H103.841V35.0724C102.76 33.9431 102.004 32.5428 101.653 31.0195ZM105.766 31.0195H107.954C107.604 32.5433 106.848 33.9438 105.766 35.0724V31.0195Z" fill="#245EAC"/>
<path d="M35.8432 34.2265V2.92139H56.6398V8.42259H42.7752V16.1159H54.8064V21.6171H42.7752V34.2303L35.8432 34.2265Z" fill="#245EAC" stroke="#245EAC" stroke-width="1.51967" stroke-miterlimit="10"/>
<path d="M2 2.91943H9.33466L16.2681 25.1476L23.2009 2.91943H30.5355L19.442 34.2246H13.0465L2 2.91943Z" fill="#245EAC" stroke="#245EAC" stroke-width="1.51967" stroke-miterlimit="10"/>
<path d="M67.304 3.74916C67.304 5.50361 67.304 7.18283 67.304 8.86206C67.304 13.763 67.3974 18.6639 67.2637 23.5648C67.2075 25.605 67.9012 26.3322 69.7005 26.3322C69.8274 26.3322 69.9596 26.3322 70.0979 26.3215C71.189 26.2661 72.2816 26.2455 73.4009 26.2455C75.0915 26.2455 76.8422 26.2835 78.7402 26.2835V3.92771H83.1222V30.5295L75.8065 30.8881C75.5466 31.9732 75.2944 33.024 75.0064 34.2268H71.328C71.1198 33.1 70.9398 32.1236 70.6989 30.8235H63.1636V3.74916H67.304ZM68.8236 2.22949H61.644V32.3432H69.4345L69.8335 34.5034L70.0614 35.7465H76.2024L76.4813 34.5817L76.7571 33.4336L77.0169 32.35L80.9528 32.1578L83.1943 32.0476L84.638 31.977V2.40804H77.2167V24.7608L75.925 24.7479C75.0489 24.7388 74.2223 24.7297 73.3933 24.7297C72.0818 24.7297 71.0074 24.7532 70.0128 24.8057C69.9003 24.8117 69.7924 24.814 69.6929 24.814C69.1048 24.814 68.9285 24.7122 68.9095 24.7C68.8905 24.6879 68.7522 24.447 68.775 23.6082C68.8707 20.1038 68.851 16.5501 68.832 13.1141C68.8236 11.7198 68.816 10.2784 68.816 8.86282C68.816 7.7056 68.816 6.54761 68.816 5.36759V2.22949H68.8236Z" fill="#245EAC"/>
<path d="M70.6958 34.9866L70.0667 31.5833H62.4038V2.98926H68.0638V8.86124C68.0638 10.2791 68.0714 11.722 68.0797 13.1163C68.0987 16.5462 68.1185 20.0923 68.0227 23.5838C67.9999 24.4241 68.1147 24.9621 68.373 25.2273C68.601 25.4552 69.0325 25.5707 69.7004 25.5707C69.8129 25.5707 69.9337 25.5707 70.0591 25.5616C71.04 25.5115 72.1015 25.4856 73.4024 25.4856C74.2275 25.4856 75.0527 25.4948 75.9258 25.5039C76.5944 25.5115 77.279 25.5191 77.9826 25.5221V3.16857H83.8843V31.2535L76.4151 31.619L75.6074 34.9866H70.6958Z" fill="#245EAC"/>
</svg>
