<svg width="25" height="25" viewBox="0 0 25 25" fill="none" xmlns="http://www.w3.org/2000/svg">
<g clip-path="url(#clip0_1_1441)">
<path d="M19.7731 13.9141L1.81764 13.9394C1.41358 13.9394 1.07248 13.8003 0.794352 13.5222C0.516224 13.244 0.377497 12.9033 0.378169 12.4999C0.37817 12.0958 0.517233 11.7547 0.795362 11.4766C1.07349 11.1985 1.41425 11.0598 1.81764 11.0604L19.7731 11.0857L12.0959 3.40852C11.8097 3.12231 11.6666 2.78526 11.6666 2.39736C11.6666 2.00946 11.8097 1.67308 12.0959 1.38822C12.3821 1.10201 12.7192 0.958905 13.1071 0.958905C13.495 0.958905 13.8314 1.10201 14.1162 1.38822L24.2178 11.4897C24.504 11.776 24.6471 12.113 24.6471 12.5009C24.6471 12.8888 24.504 13.2252 24.2178 13.51L14.1162 23.6116C13.83 23.8978 13.493 24.0409 13.1051 24.0409C12.7172 24.0409 12.3808 23.8978 12.0959 23.6116C11.8097 23.3254 11.6666 22.9883 11.6666 22.6004C11.6666 22.2125 11.8097 21.8761 12.0959 21.5913L19.7731 13.9141Z" fill="black"/>
</g>
<defs>
<clipPath id="clip0_1_1441">
<rect width="24" height="24" fill="white" transform="translate(0.5 0.5)"/>
</clipPath>
</defs>
</svg>
