<svg width="34" height="34" viewBox="0 0 34 34" fill="none" xmlns="http://www.w3.org/2000/svg">
<path d="M30.6566 1.41626H2.63496C1.96107 1.41626 1.41663 1.9607 1.41663 2.63459V30.6563C1.41663 31.3302 1.96107 31.8746 2.63496 31.8746H30.6566C31.3305 31.8746 31.875 31.3302 31.875 30.6563V2.63459C31.875 1.9607 31.3305 1.41626 30.6566 1.41626ZM27.1387 10.3063H24.7058C22.7984 10.3063 22.4291 11.2124 22.4291 12.545V15.4804H26.9826L26.3887 20.0758H22.4291V31.8746H17.6814V20.0796H13.7104V15.4804H17.6814V12.0919C17.6814 8.15897 20.0838 6.01547 23.5941 6.01547C25.2769 6.01547 26.7199 6.14111 27.1425 6.19822V10.3063H27.1387Z" fill="white"/>
</svg>
