<svg width="60" height="60" viewBox="0 0 60 60" fill="none" xmlns="http://www.w3.org/2000/svg">
<path d="M54.1 2.5H4.65C3.46078 2.5 2.5 3.46078 2.5 4.65V54.1C2.5 55.2892 3.46078 56.25 4.65 56.25H54.1C55.2892 56.25 56.25 55.2892 56.25 54.1V4.65C56.25 3.46078 55.2892 2.5 54.1 2.5ZM47.8919 18.1883H43.5986C40.2325 18.1883 39.5808 19.7873 39.5808 22.1389V27.3191H47.6164L46.5683 35.4286H39.5808V56.25H31.2025V35.4353H24.1948V27.3191H31.2025V21.3394C31.2025 14.3989 35.442 10.6163 41.6367 10.6163C44.6064 10.6163 47.1528 10.838 47.8986 10.9388V18.1883H47.8919Z" fill="#1B5AAE"/>
</svg>
