<svg width="35" height="34" viewBox="0 0 35 34" fill="none" xmlns="http://www.w3.org/2000/svg">
<path d="M17.1698 12.5741C14.7327 12.5741 12.7438 14.5629 12.7438 17.0001C12.7438 19.4372 14.7327 21.426 17.1698 21.426C19.6069 21.426 21.5958 19.4372 21.5958 17.0001C21.5958 14.5629 19.6069 12.5741 17.1698 12.5741ZM30.4444 17.0001C30.4444 15.1672 30.461 13.351 30.3581 11.5215C30.2551 9.39654 29.7704 7.51061 28.2165 5.9567C26.6592 4.39947 24.7766 3.91803 22.6516 3.8151C20.8188 3.71217 19.0026 3.72877 17.1731 3.72877C15.3403 3.72877 13.5241 3.71217 11.6946 3.8151C9.56958 3.91803 7.68364 4.40279 6.12974 5.9567C4.57251 7.51393 4.09106 9.39654 3.98813 11.5215C3.8852 13.3544 3.90181 15.1706 3.90181 17.0001C3.90181 18.8295 3.8852 20.6491 3.98813 22.4786C4.09106 24.6036 4.57583 26.4895 6.12974 28.0434C7.68696 29.6006 9.56958 30.0821 11.6946 30.185C13.5274 30.2879 15.3436 30.2713 17.1731 30.2713C19.0059 30.2713 20.8221 30.2879 22.6516 30.185C24.7766 30.0821 26.6626 29.5973 28.2165 28.0434C29.7737 26.4862 30.2551 24.6036 30.3581 22.4786C30.4643 20.6491 30.4444 18.8329 30.4444 17.0001ZM17.1698 23.81C13.4012 23.81 10.3598 20.7686 10.3598 17.0001C10.3598 13.2315 13.4012 10.1901 17.1698 10.1901C20.9383 10.1901 23.9797 13.2315 23.9797 17.0001C23.9797 20.7686 20.9383 23.81 17.1698 23.81ZM24.2586 11.5016C23.3788 11.5016 22.6682 10.7911 22.6682 9.91119C22.6682 9.03131 23.3788 8.32076 24.2586 8.32076C25.1385 8.32076 25.8491 9.03131 25.8491 9.91119C25.8493 10.1201 25.8084 10.3271 25.7285 10.5201C25.6487 10.7132 25.5316 10.8886 25.3838 11.0364C25.2361 11.1841 25.0607 11.3013 24.8676 11.3811C24.6745 11.4609 24.4676 11.5019 24.2586 11.5016Z" fill="white"/>
</svg>
