<svg width="61" height="60" viewBox="0 0 61 60" fill="none" xmlns="http://www.w3.org/2000/svg">
<path d="M30.5 22.1895C26.1992 22.1895 22.6895 25.6992 22.6895 30C22.6895 34.3008 26.1992 37.8106 30.5 37.8106C34.8008 37.8106 38.3106 34.3008 38.3106 30C38.3106 25.6992 34.8008 22.1895 30.5 22.1895ZM53.9258 30C53.9258 26.7657 53.9551 23.5606 53.7735 20.3321C53.5918 16.5821 52.7363 13.2539 49.9942 10.5118C47.2461 7.76371 43.9238 6.9141 40.1738 6.73246C36.9395 6.55082 33.7344 6.58011 30.5059 6.58011C27.2715 6.58011 24.0664 6.55082 20.8379 6.73246C17.0879 6.9141 13.7598 7.76956 11.0176 10.5118C8.26953 13.2598 7.41993 16.5821 7.23828 20.3321C7.05664 23.5664 7.08594 26.7715 7.08594 30C7.08594 33.2285 7.05664 36.4395 7.23828 39.668C7.41993 43.418 8.27539 46.7461 11.0176 49.4883C13.7656 52.2364 17.0879 53.086 20.8379 53.2676C24.0723 53.4492 27.2774 53.4199 30.5059 53.4199C33.7402 53.4199 36.9453 53.4492 40.1738 53.2676C43.9238 53.086 47.252 52.2305 49.9942 49.4883C52.7422 46.7403 53.5918 43.418 53.7735 39.668C53.961 36.4395 53.9258 33.2344 53.9258 30ZM30.5 42.0176C23.8496 42.0176 18.4824 36.6504 18.4824 30C18.4824 23.3496 23.8496 17.9825 30.5 17.9825C37.1504 17.9825 42.5176 23.3496 42.5176 30C42.5176 36.6504 37.1504 42.0176 30.5 42.0176ZM43.0098 20.2969C41.457 20.2969 40.2031 19.043 40.2031 17.4903C40.2031 15.9375 41.457 14.6836 43.0098 14.6836C44.5625 14.6836 45.8164 15.9375 45.8164 17.4903C45.8169 17.859 45.7446 18.2241 45.6037 18.5649C45.4628 18.9056 45.2561 19.2152 44.9954 19.4759C44.7347 19.7366 44.4251 19.9433 44.0844 20.0842C43.7437 20.2251 43.3785 20.2974 43.0098 20.2969Z" fill="#1B5AAE"/>
</svg>
