<svg width="18" height="18" viewBox="0 0 18 18" fill="none" xmlns="http://www.w3.org/2000/svg">
<path d="M8.59923 5.02036L9.99142 3.62817C10.5809 3.09093 11.3546 2.80146 12.152 2.81992C12.9493 2.83838 13.7088 3.16335 14.2728 3.72729C14.8367 4.29123 15.1617 5.05078 15.1801 5.84811C15.1986 6.64543 14.9091 7.41921 14.3719 8.00864L12.382 9.99145C12.0953 10.2793 11.7545 10.5077 11.3792 10.6636C11.004 10.8194 10.6017 10.8996 10.1953 10.8996C9.789 10.8996 9.38667 10.8194 9.01142 10.6636C8.63617 10.5077 8.29538 10.2793 8.00861 9.99145" stroke="#1B5AAE" stroke-width="2" stroke-linecap="round" stroke-linejoin="round"/>
<path d="M9.40077 12.9796L8.00858 14.3718C7.41914 14.909 6.64537 15.1985 5.84805 15.18C5.05072 15.1616 4.29117 14.8366 3.72723 14.2727C3.16329 13.7087 2.83832 12.9492 2.81986 12.1519C2.8014 11.3545 3.09087 10.5808 3.62811 9.99132L5.61796 8.00851C5.90473 7.72066 6.24552 7.49226 6.62077 7.33641C6.99602 7.18057 7.39835 7.10034 7.80467 7.10034C8.211 7.10034 8.61333 7.18057 8.98858 7.33641C9.36383 7.49226 9.70462 7.72066 9.99139 8.00851" stroke="#1B5AAE" stroke-width="2" stroke-linecap="round" stroke-linejoin="round"/>
</svg>
