<svg width="35" height="34" viewBox="0 0 35 34" fill="none" xmlns="http://www.w3.org/2000/svg">
<g clip-path="url(#clip0_1_1481)">
<path d="M0.3396 2.43525C0.3396 1.09013 1.45735 0 2.83647 0H31.8427C33.2218 0 34.3396 1.09013 34.3396 2.43525V31.5648C34.3396 32.9099 33.2218 34 31.8427 34H2.83647C1.45735 34 0.3396 32.9099 0.3396 31.5648V2.43525ZM10.8435 28.4622V13.1091H5.74135V28.4622H10.8435ZM8.29347 11.0118C10.0721 11.0118 11.1792 9.8345 11.1792 8.35975C11.1473 6.85313 10.0742 5.70775 8.32747 5.70775C6.58072 5.70775 5.4396 6.85525 5.4396 8.35975C5.4396 9.8345 6.54672 11.0118 8.25947 11.0118H8.29347ZM18.723 28.4622V19.8879C18.723 19.4289 18.757 18.9699 18.893 18.6426C19.2606 17.7267 20.1 16.7769 21.511 16.7769C23.3576 16.7769 24.095 18.1836 24.095 20.2491V28.4622H29.1971V19.6562C29.1971 14.9388 26.6811 12.7458 23.3236 12.7458C20.6164 12.7458 19.403 14.2332 18.723 15.2809V15.334H18.689C18.7003 15.3163 18.7116 15.2986 18.723 15.2809V13.1091H13.623C13.6867 14.5499 13.623 28.4622 13.623 28.4622H18.723Z" fill="white"/>
</g>
<defs>
<clipPath id="clip0_1_1481">
<rect width="34" height="34" fill="white" transform="translate(0.3396)"/>
</clipPath>
</defs>
</svg>
