<svg width="35" height="34" viewBox="0 0 35 34" fill="none" xmlns="http://www.w3.org/2000/svg">
<path d="M15.7619 18.9976C16.3427 19.5501 16.3427 20.4567 15.7619 21.0092C15.2094 21.5617 14.3027 21.5617 13.7502 21.0092C12.4234 19.6804 11.6781 17.8792 11.6781 16.0013C11.6781 14.1234 12.4234 12.3223 13.7502 10.9934L18.7652 5.9784C20.0941 4.65152 21.8953 3.90625 23.7732 3.90625C25.6511 3.90625 27.4522 4.65152 28.7811 5.9784C30.1079 7.30727 30.8532 9.10841 30.8532 10.9863C30.8532 12.8642 30.1079 14.6654 28.7811 15.9942L26.6702 18.1051C26.6844 16.9434 26.5002 15.7817 26.1036 14.6767L26.7694 13.9967C27.1665 13.6039 27.4818 13.1361 27.697 12.6206C27.9122 12.1051 28.023 11.552 28.023 10.9934C28.023 10.4348 27.9122 9.88169 27.697 9.36617C27.4818 8.85065 27.1665 8.38292 26.7694 7.99006C26.3765 7.59292 25.9088 7.27763 25.3933 7.06246C24.8778 6.84728 24.3247 6.73649 23.7661 6.73649C23.2074 6.73649 22.6544 6.84728 22.1388 7.06246C21.6233 7.27763 21.1556 7.59292 20.7627 7.99006L15.7619 12.9909C15.3648 13.3838 15.0495 13.8515 14.8343 14.367C14.6191 14.8825 14.5083 15.4356 14.5083 15.9942C14.5083 16.5529 14.6191 17.1059 14.8343 17.6215C15.0495 18.137 15.3648 18.6047 15.7619 18.9976ZM19.7569 12.9909C20.3094 12.4384 21.2161 12.4384 21.7686 12.9909C23.0954 14.3198 23.8407 16.1209 23.8407 17.9988C23.8407 19.8767 23.0954 21.6779 21.7686 23.0067L16.7536 28.0217C15.4247 29.3486 13.6236 30.0939 11.7457 30.0939C9.86775 30.0939 8.06661 29.3486 6.73773 28.0217C5.41085 26.6929 4.66559 24.8917 4.66559 23.0138C4.66559 21.1359 5.41085 19.3348 6.73773 18.0059L8.84857 15.8951C8.8344 17.0567 9.01857 18.2184 9.41523 19.3376L8.7494 20.0034C8.35226 20.3963 8.03697 20.864 7.8218 21.3795C7.60662 21.895 7.49583 22.4481 7.49583 23.0067C7.49583 23.5654 7.60662 24.1184 7.8218 24.634C8.03697 25.1495 8.35226 25.6172 8.7494 26.0101C9.14226 26.4072 9.60999 26.7225 10.1255 26.9377C10.641 27.1528 11.1941 27.2636 11.7527 27.2636C12.3114 27.2636 12.8644 27.1528 13.38 26.9377C13.8955 26.7225 14.3632 26.4072 14.7561 26.0101L19.7569 21.0092C20.154 20.6164 20.4693 20.1486 20.6845 19.6331C20.8997 19.1176 21.0105 18.5645 21.0105 18.0059C21.0105 17.4473 20.8997 16.8942 20.6845 16.3787C20.4693 15.8631 20.154 15.3954 19.7569 15.0026C19.6193 14.8736 19.5096 14.7179 19.4347 14.5448C19.3597 14.3718 19.321 14.1853 19.321 13.9967C19.321 13.8082 19.3597 13.6216 19.4347 13.4486C19.5096 13.2756 19.6193 13.1198 19.7569 12.9909Z" fill="white"/>
</svg>
