<svg width="80" height="81" viewBox="0 0 80 81" fill="none" xmlns="http://www.w3.org/2000/svg">
<path d="M54.0502 45.7764H26.229V73.6977H54.0502V45.7764Z" fill="#FED500"/>
<path d="M64.3195 27.5992C64.3348 27.5992 64.3473 27.5867 64.3472 27.5714C64.3369 24.5827 63.6921 21.6302 62.4553 18.9092C61.2207 16.1741 59.4732 13.701 57.3073 11.6239C55.1005 9.48959 52.5124 7.78883 49.6777 6.61011C46.7168 5.37639 43.5409 4.74121 40.3332 4.74121C37.1255 4.74121 33.9496 5.37639 30.9887 6.61011C28.1536 7.78813 25.5654 9.48897 23.3591 11.6239C21.1932 13.701 19.4457 16.1741 18.2111 18.9092C16.981 21.6137 16.3365 24.5473 16.3194 27.5177C16.3191 27.5627 16.3556 27.5992 16.4006 27.5992H16.4764C16.4794 27.5992 16.4819 27.6017 16.4819 27.6047C16.4819 27.6061 16.4824 27.6075 16.4834 27.6085L28.8736 40.9334C29.4018 41.5015 28.999 42.4261 28.2233 42.4261C26.9302 42.4287 25.6909 42.9442 24.7774 43.8594C23.8638 44.7746 23.3506 46.0148 23.3503 47.3079V71.256C23.3518 72.5492 23.866 73.7891 24.7804 74.7036C25.6947 75.6182 26.9345 76.1328 28.2277 76.1345H52.1703C53.4636 76.1328 54.7035 75.6182 55.618 74.7037C56.5325 73.7892 57.0471 72.5493 57.0488 71.256V47.3079C57.0473 46.0145 56.5329 44.7745 55.6183 43.8599C54.7037 42.9453 53.4637 42.4309 52.1703 42.4294C51.3523 42.4294 50.9354 41.4471 51.5036 40.8587L64.2995 27.6077C64.3047 27.6023 64.312 27.5992 64.3195 27.5992ZM38.0028 25.8679C38.0026 25.8683 38.003 25.8688 38.0034 25.8687L38.8735 25.6852C39.3212 25.5964 39.7767 25.5533 40.2331 25.5565C40.6591 25.5541 41.0844 25.5909 41.5036 25.6665L42.359 25.831C42.3603 25.8313 42.3616 25.8302 42.3616 25.8288C42.3616 25.8274 42.363 25.8264 42.3643 25.8267C43.2387 26.0503 44.0701 26.3666 44.8001 26.8161C45.468 27.2273 45.6596 28.0701 45.417 28.816L41.2785 41.5432C41.1077 42.0684 40.6183 42.4239 40.066 42.4239C39.5026 42.4239 39.006 42.0541 38.8445 41.5143L34.917 28.3831C34.7766 27.9139 34.8981 27.3949 35.2912 27.1028C36.0706 26.5234 36.9901 26.1483 38.0022 25.8671C38.0026 25.8669 38.003 25.8674 38.0028 25.8679ZM24.6004 32.0541C22.2661 29.5041 22.5034 25.5609 25.9606 25.5609C27.1184 25.5609 28.2472 25.7966 29.2626 26.2346C30.8037 26.8994 31.6584 28.4676 32.1469 30.0734L35.5073 41.1189C35.705 41.7688 35.2187 42.425 34.5394 42.425C34.2556 42.425 33.9849 42.3058 33.7932 42.0965L24.6004 32.0541ZM52.6131 47.3063C52.6143 47.3055 52.6158 47.3064 52.6158 47.3078V71.256C52.6158 71.3727 52.5694 71.4846 52.4869 71.5671C52.4044 71.6497 52.2925 71.696 52.1758 71.696H28.2244C28.1077 71.696 27.9958 71.6497 27.9133 71.5671C27.8308 71.4846 27.7844 71.3727 27.7844 71.256V47.3079C27.7844 47.1912 27.8308 47.0793 27.9133 46.9968C27.9958 46.9143 28.1077 46.8679 28.2244 46.8679H52.1703C52.287 46.8679 52.3989 46.9143 52.4814 46.9968C52.5632 47.0785 52.6094 47.1892 52.6103 47.3047C52.6103 47.3061 52.6118 47.307 52.6131 47.3063ZM46.1466 42.1153C45.9585 42.3137 45.697 42.4261 45.4236 42.4261C44.7423 42.4261 44.262 41.7576 44.4795 41.1119L48.2906 29.7944C48.7729 28.3623 49.5413 26.9592 50.9122 26.3236C52.0113 25.8141 53.264 25.5631 54.565 25.5631C57.9885 25.5631 58.1582 29.4458 55.8027 31.9302L46.1466 42.1153Z" fill="#1B5AAE"/>
<path d="M37.6229 66.5847H43.0404V61.8723H47.7528V56.4515H43.0404V51.7402H37.6207V56.4515H32.9094V61.8723H37.6207L37.6229 66.5847Z" fill="#1B5AAE"/>
</svg>
