<svg width="80" height="81" viewBox="0 0 80 81" fill="none" xmlns="http://www.w3.org/2000/svg">
<path d="M20.1983 32.5656C27.082 32.5656 32.6623 26.9853 32.6623 20.1017C32.6623 13.218 27.082 7.6377 20.1983 7.6377C13.3147 7.6377 7.73438 13.218 7.73438 20.1017C7.73438 26.9853 13.3147 32.5656 20.1983 32.5656Z" fill="#FED500"/>
<path d="M50.4434 46.5246C57.3271 46.5246 62.9074 40.9443 62.9074 34.0606C62.9074 27.177 57.3271 21.5967 50.4434 21.5967C43.5598 21.5967 37.9795 27.177 37.9795 34.0606C37.9795 40.9443 43.5598 46.5246 50.4434 46.5246Z" fill="#FED500"/>
<path d="M49.7865 20.0381C46.4571 20.0329 43.229 21.1826 40.6525 23.2912C38.076 25.3998 36.3105 28.3368 35.6572 31.6014C35.0038 34.866 35.503 38.2562 37.0696 41.194C38.6362 44.1318 41.1732 46.4352 44.2481 47.7117C47.3231 48.9882 50.7456 49.1587 53.9321 48.1941C57.1187 47.2295 59.8721 45.1895 61.7228 42.422C63.5736 39.6545 64.4072 36.3307 64.0815 33.0173C63.7558 29.7039 62.291 26.606 59.9368 24.2518C57.2449 21.5585 53.5944 20.043 49.7865 20.0381ZM49.7865 45.0387C47.3227 45.0406 44.9345 44.1879 43.029 42.626C41.1236 41.0641 39.8188 38.8897 39.3371 36.4734C38.8554 34.0572 39.2266 31.5486 40.3875 29.3755C41.5483 27.2023 43.427 25.499 45.7031 24.5559C47.9793 23.6128 50.5121 23.4884 52.8697 24.2037C55.2274 24.9191 57.264 26.43 58.6323 28.4788C60.0007 30.5277 60.6161 32.9878 60.3736 35.4396C60.1312 37.8914 59.0459 40.1833 57.3027 41.9245C55.3094 43.9193 52.6055 45.0409 49.7855 45.0428L49.7865 45.0387Z" fill="#245EAC"/>
<path d="M20.0182 5.67389C16.6911 5.66421 13.4636 6.80885 10.886 8.91266C8.30847 11.0165 6.5404 13.9492 5.88329 17.2108C5.22618 20.4724 5.72071 23.861 7.28256 26.7987C8.84441 29.7365 11.3769 32.0416 14.4482 33.321C17.5195 34.6004 20.9395 34.7749 24.1251 33.8148C27.3107 32.8546 30.0647 30.8193 31.9174 28.0557C33.7702 25.2922 34.607 21.9716 34.2853 18.66C33.9636 15.3485 32.5032 12.251 30.1532 9.89576C27.4673 7.20175 23.8224 5.68339 20.0182 5.67389ZM20.0182 30.6632C17.5541 30.6682 15.1646 29.8182 13.257 28.2583C11.3495 26.6985 10.0421 24.5252 9.55777 22.1092C9.07341 19.6931 9.4421 17.1839 10.601 15.0093C11.7598 12.8347 13.6371 11.1293 15.9127 10.1841C18.1883 9.23884 20.7214 9.1122 23.0799 9.82573C25.4385 10.5393 27.4765 12.0488 28.8465 14.097C30.2165 16.1451 30.8336 18.6051 30.5927 21.0574C30.3518 23.5097 29.2677 25.8026 27.5253 27.5449C25.5347 29.5376 22.8348 30.659 20.0182 30.6632Z" fill="#245EAC"/>
<path d="M21.5056 18.6856L21.0787 18.5321C19.5431 17.9526 19.1439 17.6906 19.1439 17.2422C19.1439 16.7938 19.668 16.4877 20.4747 16.4877C20.7386 16.4857 21.0022 16.508 21.262 16.5542C21.4798 16.5874 21.6952 16.6346 21.9069 16.6955C22.2634 16.7965 22.6454 16.7521 22.9692 16.5719C23.2929 16.3917 23.532 16.0904 23.634 15.7342L23.7108 15.4711C23.7629 15.2893 23.7782 15.099 23.7557 14.9112C23.7332 14.7234 23.6734 14.5421 23.5797 14.3778C23.488 14.2175 23.3654 14.0771 23.219 13.9646C23.0727 13.8522 22.9054 13.7699 22.727 13.7226C22.4035 13.6385 22.0749 13.5763 21.7431 13.5362C21.7431 13.0578 21.5531 12.599 21.2148 12.2607C20.8765 11.9225 20.4177 11.7324 19.9393 11.7324C19.4609 11.7324 19.0021 11.9225 18.6638 12.2607C18.3255 12.599 18.1355 13.0578 18.1355 13.5362V13.8864C17.39 14.1419 16.7428 14.6237 16.2841 15.2645C15.8253 15.9053 15.5779 16.6732 15.5762 17.4612C15.5762 19.0357 16.5272 20.2489 18.374 21.0689C18.6371 21.1774 18.8859 21.2869 19.15 21.376C20.5935 21.8879 20.8668 22.239 20.8668 22.6659C20.8668 23.4306 19.9373 23.5504 19.3906 23.5504C19.1268 23.5508 18.8634 23.5285 18.6034 23.4839C18.2318 23.4348 17.8658 23.3508 17.51 23.2331C17.1453 23.1243 16.7525 23.1637 16.4167 23.3426C16.2522 23.4371 16.1091 23.5645 15.9962 23.7169C15.8832 23.8693 15.803 24.0433 15.7604 24.2281L15.6837 24.5352C15.5998 24.8741 15.6467 25.2321 15.815 25.5379C15.9833 25.8438 16.2606 26.075 16.5917 26.1855C17.1051 26.3464 17.6321 26.4598 18.1662 26.5243C18.1662 27.0027 18.3563 27.4616 18.6945 27.7998C19.0328 28.1381 19.4916 28.3282 19.97 28.3282C20.4484 28.3282 20.9072 28.1381 21.2455 27.7998C21.5838 27.4616 21.7739 27.0027 21.7739 26.5243V26.1855C22.5611 25.9378 23.2481 25.4442 23.734 24.7772C24.2199 24.1101 24.4791 23.3048 24.4734 22.4796C24.4407 20.7525 23.5122 19.5497 21.5046 18.6918L21.5056 18.6856Z" fill="#245EAC"/>
<path d="M22.7948 68.7512C23.3111 68.4691 23.89 68.3213 24.4783 68.3213C25.0667 68.3213 25.6456 68.4691 26.1619 68.7512C35.785 73.8791 40.4818 73.8893 42.2764 73.5505C42.2764 73.5505 56.837 73.0693 71.7917 59.1752L72.9946 57.9733C73.5246 57.4434 73.8654 56.7537 73.9642 56.0108C74.063 55.2678 73.9144 54.5131 73.5413 53.863C73.2477 53.3482 72.8495 52.9006 72.3723 52.5491C71.8951 52.1976 71.3496 51.9501 70.7708 51.8224C70.1921 51.6947 69.593 51.6897 69.0122 51.8077C68.4314 51.9257 67.8818 52.1641 67.3989 52.5076L62.7747 55.0987C59.6832 56.8045 56.7134 58.7221 53.8866 60.8377C51.2888 62.9815 48.0495 64.1961 44.6827 64.2888C41.3159 64.3815 38.0146 63.3471 35.3028 61.3496C41.9929 63.7042 48.4209 61.798 51.3508 59.4147C54.0074 57.3161 53.9102 54.7905 48.771 54.4517C40.9108 53.9163 38.418 52.4841 37.6307 51.6753C36.962 50.8761 36.1594 50.1992 35.2588 49.6749C24.6549 43.7496 14.1821 53.1075 14.1821 53.1075L14.7831 54.2009L21.5499 66.7713L22.6433 68.7164C22.6592 68.7441 22.6841 68.7657 22.7138 68.7776C22.7435 68.7895 22.7764 68.791 22.8071 68.7819" fill="#245EAC"/>
<path d="M11.2868 55.608C11.7694 55.3607 12.3611 55.5431 12.6208 56.0191L19.3313 68.3233C19.5853 68.789 19.4314 69.3721 18.9807 69.6518L15.8992 71.5639C15.4082 71.8686 14.762 71.6949 14.4898 71.1852L7.75114 58.5624C7.48795 58.0694 7.67989 57.4564 8.17724 57.2015L11.2868 55.608Z" fill="#FED500" stroke="#1B5AAE" stroke-width="2"/>
<path d="M49.7003 41.9356C48.6414 41.9356 47.6259 41.5149 46.8771 40.7662C46.1284 40.0174 45.7077 39.0019 45.7077 37.943C45.7077 35.8167 47.3375 35.0397 49.2242 34.1399L49.5314 33.9904C49.7023 33.9034 49.8743 33.8174 50.0432 33.7345C51.6075 32.9533 52.9588 32.2787 52.9588 30.6888C52.9588 29.823 52.6149 28.9926 52.0026 28.3804C51.3904 27.7681 50.56 27.4242 49.6941 27.4242C48.8283 27.4242 47.9979 27.7681 47.3856 28.3804C46.7734 28.9926 46.4294 29.823 46.4294 30.6888C46.4245 30.7818 46.3841 30.8692 46.3166 30.9333C46.2491 30.9973 46.1596 31.033 46.0665 31.033C45.9735 31.033 45.884 30.9973 45.8165 30.9333C45.7489 30.8692 45.7086 30.7818 45.7036 30.6888C45.7036 29.63 46.1243 28.6144 46.873 27.8657C47.6218 27.1169 48.6373 26.6963 49.6962 26.6963C50.7551 26.6963 51.7706 27.1169 52.5193 27.8657C53.2681 28.6144 53.6887 29.63 53.6887 30.6888C53.6887 31.6102 53.3396 32.378 52.621 33.0199C52.0067 33.5666 51.2133 33.9627 50.3688 34.3835C50.2029 34.4664 50.0299 34.5524 49.8569 34.6394H49.8487L49.5314 34.7909C47.7296 35.6499 46.4274 36.2713 46.4274 37.9389C46.4274 38.8048 46.7713 39.6352 47.3836 40.2474C47.9958 40.8597 48.8262 41.2036 49.6921 41.2036C50.5579 41.2036 51.3883 40.8597 52.0006 40.2474C52.6128 39.6352 52.9568 38.8048 52.9568 37.9389C52.9617 37.846 53.0021 37.7585 53.0696 37.6945C53.1371 37.6305 53.2266 37.5948 53.3197 37.5948C53.4127 37.5948 53.5022 37.6305 53.5697 37.6945C53.6373 37.7585 53.6777 37.846 53.6826 37.9389C53.6826 38.9978 53.2619 40.0134 52.5132 40.7621C51.7644 41.5109 50.7489 41.9315 49.69 41.9315L49.7003 41.9356Z" fill="#245EAC" stroke="#245EAC" stroke-width="1.1517" stroke-miterlimit="10"/>
<path d="M55.9279 33.471H44.0526C43.9597 33.466 43.8722 33.4256 43.8082 33.3581C43.7442 33.2906 43.7085 33.2011 43.7085 33.108C43.7085 33.015 43.7442 32.9255 43.8082 32.858C43.8722 32.7904 43.9597 32.7501 44.0526 32.7451H55.9279C56.0209 32.7501 56.1083 32.7904 56.1724 32.858C56.2364 32.9255 56.2721 33.015 56.2721 33.108C56.2721 33.2011 56.2364 33.2906 56.1724 33.3581C56.1083 33.4256 56.0209 33.466 55.9279 33.471Z" fill="#245EAC" stroke="#245EAC" stroke-width="1.1517" stroke-miterlimit="10"/>
<path d="M55.9279 35.8889H44.0526C43.9597 35.884 43.8722 35.8436 43.8082 35.7761C43.7442 35.7086 43.7085 35.6191 43.7085 35.526C43.7085 35.433 43.7442 35.3434 43.8082 35.2759C43.8722 35.2084 43.9597 35.168 44.0526 35.1631H55.9279C56.0209 35.168 56.1083 35.2084 56.1724 35.2759C56.2364 35.3434 56.2721 35.433 56.2721 35.526C56.2721 35.6191 56.2364 35.7086 56.1724 35.7761C56.1083 35.8436 56.0209 35.884 55.9279 35.8889Z" fill="#245EAC" stroke="#245EAC" stroke-width="1.1517" stroke-miterlimit="10"/>
</svg>
