<svg width="53" height="60" viewBox="0 0 53 60" fill="none" xmlns="http://www.w3.org/2000/svg">
<path d="M53 24.5988C47.8408 24.6112 42.8081 23.0022 38.6129 19.9992V40.943C38.6115 44.822 37.4258 48.6081 35.2145 51.7951C33.0032 54.9821 29.8717 57.418 26.2386 58.7772C22.6055 60.1363 18.644 60.354 14.8839 59.4009C11.1238 58.4479 7.74427 56.3696 5.19719 53.444C2.65012 50.5184 1.05692 46.8849 0.630625 43.0294C0.204331 39.1739 0.965262 35.2801 2.81167 31.8687C4.65808 28.4574 7.50196 25.691 10.963 23.9395C14.4241 22.188 18.3374 21.5349 22.1797 22.0676V32.6016C20.4215 32.0485 18.5334 32.0652 16.7852 32.6492C15.0371 33.2332 13.5181 34.3546 12.4453 35.8534C11.3724 37.3521 10.8006 39.1515 10.8115 40.9947C10.8223 42.8378 11.4153 44.6304 12.5057 46.1164C13.5961 47.6024 15.1282 48.7059 16.8831 49.2692C18.6381 49.8326 20.5262 49.827 22.2778 49.2533C24.0294 48.6796 25.5549 47.567 26.6365 46.0746C27.7181 44.5822 28.3004 42.7861 28.3004 40.943V0H38.6129C38.6057 0.870867 38.6787 1.74055 38.8309 2.59805C39.1892 4.51228 39.9343 6.33329 41.0206 7.94969C42.1068 9.56609 43.5114 10.9439 45.1484 11.9988C47.4774 13.5388 50.208 14.3596 53 14.359V24.5988Z" fill="#1B5AAE"/>
</svg>
