<svg width="28" height="30" viewBox="0 0 28 30" fill="none" xmlns="http://www.w3.org/2000/svg">
<g clip-path="url(#clip0_1_1483)">
<path d="M27.1746 12.2994C24.595 12.3056 22.0786 11.5011 19.981 9.99961V20.4715C19.9803 22.411 19.3875 24.3041 18.2818 25.8975C17.1762 27.491 15.6104 28.709 13.7939 29.3886C11.9773 30.0682 9.99659 30.177 8.11654 29.7005C6.23648 29.2239 4.54671 28.1848 3.27317 26.722C1.99964 25.2592 1.20304 23.4425 0.989889 21.5147C0.776741 19.5869 1.15721 17.6401 2.08041 15.9344C3.00362 14.2287 4.42556 12.8455 6.1561 11.9698C7.88664 11.094 9.84329 10.7675 11.7644 11.0338V16.3008C10.8853 16.0243 9.9413 16.0326 9.0672 16.3246C8.1931 16.6166 7.43362 17.1773 6.89721 17.9267C6.3608 18.6761 6.07489 19.5758 6.08032 20.4973C6.08575 21.4189 6.38223 22.3152 6.92743 23.0582C7.47263 23.8012 8.23867 24.3529 9.11615 24.6346C9.99362 24.9163 10.9377 24.9135 11.8135 24.6266C12.6893 24.3398 13.452 23.7835 13.9928 23.0373C14.5336 22.2911 14.8248 21.3931 14.8248 20.4715V0H19.981C19.9774 0.435434 20.0139 0.870274 20.09 1.29902C20.2692 2.25614 20.6417 3.16665 21.1849 3.97484C21.728 4.78304 22.4303 5.47195 23.2488 5.99941C24.4133 6.76939 25.7786 7.17979 27.1746 7.17949V12.2994Z" fill="white"/>
</g>
<defs>
<clipPath id="clip0_1_1483">
<rect width="26.25" height="30" fill="white" transform="translate(0.924561)"/>
</clipPath>
</defs>
</svg>
