<svg width="35" height="34" viewBox="0 0 35 34" fill="none" xmlns="http://www.w3.org/2000/svg">
<g clip-path="url(#clip0_1_1478)">
<path d="M34.1684 6.99391C32.9854 7.51807 31.7147 7.87224 30.3788 8.03232C31.7572 7.20753 32.7884 5.9094 33.2801 4.38016C31.9851 5.14939 30.5677 5.69085 29.0896 5.98099C28.0956 4.91972 26.7791 4.21629 25.3444 3.97991C23.9097 3.74354 22.4371 3.98745 21.1552 4.67377C19.8733 5.36009 18.8539 6.45042 18.2552 7.77549C17.6564 9.10056 17.512 10.5862 17.8441 12.0018C15.22 11.8701 12.6529 11.188 10.3095 9.99994C7.966 8.81186 5.89855 7.1443 4.24128 5.10549C3.67461 6.08299 3.34878 7.21632 3.34878 8.42332C3.34814 9.5099 3.61572 10.5798 4.12777 11.5382C4.63982 12.4966 5.3805 13.3137 6.28411 13.9172C5.23617 13.8838 4.21135 13.6007 3.29494 13.0912V13.1762C3.29484 14.7002 3.82199 16.1773 4.78695 17.3568C5.75191 18.5364 7.09525 19.3457 8.58903 19.6476C7.61689 19.9107 6.59767 19.9494 5.60836 19.7609C6.02981 21.0722 6.85077 22.2189 7.9563 23.0404C9.06182 23.8619 10.3966 24.3172 11.7737 24.3424C9.43596 26.1776 6.54887 27.173 3.57686 27.1687C3.0504 27.1688 2.52438 27.1381 2.00153 27.0766C5.01828 29.0162 8.53001 30.0457 12.1165 30.0417C24.2574 30.0417 30.8944 19.9862 30.8944 11.2652C30.8944 10.9818 30.8874 10.6957 30.8746 10.4123C32.1656 9.4787 33.28 8.32259 34.1655 6.99816L34.1684 6.99391Z" fill="white"/>
</g>
<defs>
<clipPath id="clip0_1_1478">
<rect width="34" height="34" fill="white" transform="translate(0.5849)"/>
</clipPath>
</defs>
</svg>
