<svg width="61" height="60" viewBox="0 0 61 60" fill="none" xmlns="http://www.w3.org/2000/svg">
<path d="M59.765 12.3427C57.6775 13.2677 55.435 13.8927 53.0775 14.1752C55.51 12.7197 57.3298 10.4289 58.1975 7.73019C55.9121 9.08767 53.4108 10.0432 50.8025 10.5552C49.0484 8.68236 46.7251 7.44101 44.1933 7.02388C41.6614 6.60675 39.0627 7.03717 36.8006 8.24832C34.5384 9.45948 32.7394 11.3836 31.6829 13.722C30.6263 16.0603 30.3713 18.6821 30.9575 21.1802C26.3267 20.9477 21.7965 19.7441 17.661 17.6475C13.5255 15.5508 9.87707 12.6081 6.95247 9.01019C5.95247 10.7352 5.37747 12.7352 5.37747 14.8652C5.37636 16.7827 5.84855 18.6708 6.75217 20.362C7.65578 22.0532 8.96287 23.4953 10.5575 24.5602C8.70816 24.5013 6.89965 24.0017 5.28247 23.1027V23.2527C5.28228 25.942 6.21255 28.5486 7.91543 30.6302C9.6183 32.7117 11.9889 34.14 14.625 34.6727C12.9094 35.137 11.1108 35.2054 9.36497 34.8727C10.1087 37.1867 11.5575 39.2103 13.5084 40.66C15.4593 42.1098 17.8148 42.9131 20.245 42.9577C16.1196 46.1962 11.0247 47.9529 5.77997 47.9452C4.85092 47.9454 3.92266 47.8912 2.99997 47.7827C8.32366 51.2056 14.5208 53.0222 20.85 53.0152C42.275 53.0152 53.9875 35.2702 53.9875 19.8802C53.9875 19.3802 53.975 18.8752 53.9525 18.3752C56.2307 16.7276 58.1972 14.6874 59.76 12.3502L59.765 12.3427Z" fill="#1B5AAE"/>
</svg>
