<svg width="24" height="24" viewBox="0 0 24 24" fill="none" xmlns="http://www.w3.org/2000/svg">
<path d="M12 21L11.7515 21.4339C11.9054 21.522 12.0946 21.522 12.2485 21.4339L12 21ZM12 21C12.2485 21.4339 12.2486 21.4338 12.2488 21.4337L12.2494 21.4334L12.2512 21.4323L12.2575 21.4287L12.2808 21.4151C12.301 21.4034 12.3303 21.3861 12.3683 21.3635C12.4441 21.3183 12.5543 21.2517 12.6939 21.1648C12.9731 20.9911 13.3702 20.736 13.8461 20.4083C14.7969 19.7535 16.0667 18.8057 17.3386 17.6349C19.8542 15.3194 22.5 12.021 22.5 8.31819C22.5 6.97616 22.0454 5.67415 21.2115 4.6338C20.3774 3.59322 19.2147 2.87825 17.92 2.61343C16.6251 2.34857 15.281 2.55094 14.1168 3.18494C13.2497 3.65717 12.5231 4.34665 12 5.18032C11.4769 4.34665 10.7503 3.65717 9.8832 3.18494C8.71903 2.55094 7.37485 2.34857 6.08 2.61343C4.78529 2.87825 3.6226 3.59322 2.78849 4.6338C1.95456 5.67415 1.5 6.97616 1.5 8.31819C1.5 12.021 4.14575 15.3194 6.66138 17.6349C7.93335 18.8057 9.20312 19.7535 10.1539 20.4083C10.6298 20.736 11.0269 20.9911 11.3061 21.1648C11.4457 21.2517 11.5559 21.3183 11.6317 21.3635C11.6697 21.3861 11.699 21.4034 11.7192 21.4151L11.7425 21.4287L11.7488 21.4323L11.7506 21.4334L11.7512 21.4337C11.7514 21.4338 11.7515 21.4339 12 21Z" fill="#245EAC" stroke="#1B5AAE" stroke-linecap="round" stroke-linejoin="round"/>
<path fill-rule="evenodd" clip-rule="evenodd" d="M2.88901 12C5.33767 17.1843 12 21 12 21C12 21 18.6623 17.1843 21.111 12H2.88901Z" fill="#FED500"/>
</svg>
