<svg width="18" height="19" viewBox="0 0 18 19" fill="none" xmlns="http://www.w3.org/2000/svg">
<path d="M9 16.25L8.75151 16.6839C8.90544 16.772 9.09456 16.772 9.24849 16.6839L9 16.25ZM9 16.25C9.24849 16.6839 9.24863 16.6838 9.2488 16.6837L9.24928 16.6834L9.25075 16.6826L9.25573 16.6797L9.27365 16.6693C9.28908 16.6603 9.31141 16.6472 9.34018 16.63C9.39772 16.5957 9.48104 16.5454 9.58647 16.4797C9.79727 16.3485 10.0968 16.1561 10.4555 15.9091C11.1719 15.4158 12.1292 14.7013 13.0886 13.8182C14.9792 12.0779 17 9.57211 17 6.73864C17 5.70397 16.6496 4.69982 16.0062 3.89717C15.3626 3.09428 14.4651 2.54215 13.4651 2.33761C12.4649 2.13303 11.4267 2.28939 10.5278 2.77893C9.91503 3.11265 9.39339 3.58674 9 4.15781C8.60661 3.58674 8.08497 3.11265 7.47218 2.77893C6.57328 2.28939 5.53511 2.13303 4.53495 2.33761C3.53493 2.54215 2.63742 3.09428 1.99383 3.89717C1.35043 4.69982 1 5.70397 1 6.73864C1 9.57211 3.02075 12.0779 4.91138 13.8182C5.87085 14.7013 6.82812 15.4158 7.54454 15.9091C7.90323 16.1561 8.20273 16.3485 8.41353 16.4797C8.51896 16.5454 8.60228 16.5957 8.65982 16.63C8.68859 16.6472 8.71092 16.6603 8.72635 16.6693L8.74427 16.6797L8.74925 16.6826L8.75072 16.6834L8.7512 16.6837C8.75137 16.6838 8.75151 16.6839 9 16.25Z" fill="#245EAC" stroke="white" stroke-linecap="round" stroke-linejoin="round"/>
<path fill-rule="evenodd" clip-rule="evenodd" d="M2.16675 9.5C4.00324 13.3882 8.99999 16.25 8.99999 16.25C8.99999 16.25 13.9967 13.3882 15.8332 9.5H2.16675Z" fill="#FED500"/>
</svg>
