<svg width="71" height="70" viewBox="0 0 71 70" fill="none" xmlns="http://www.w3.org/2000/svg">
<path d="M52.4062 40.1446L52.4164 40.1419L52.4265 40.139C53.4973 39.8365 54.4083 39.129 54.9665 38.1663C55.5247 37.2037 55.6861 36.0616 55.4167 34.9819L55.413 34.9669L55.4089 34.9519C55.1154 33.878 54.4095 32.9635 53.4449 32.4076C52.4803 31.8517 51.3352 31.6995 50.2588 31.9841L50.2563 31.9848L43.8883 33.6812L32.7591 23.3013L32.1894 22.7699L31.4375 22.974L27.3542 24.0823L25.5998 24.5585L26.5082 26.133L32.5966 36.6863L28.0644 37.8999L24.94 35.4451L24.3887 35.0119L23.7116 35.1939L20.9991 35.9231L19.2399 36.396L20.1496 37.9742L24.9913 46.3742L25.5273 47.3042L26.5646 47.0279L52.4062 40.1446ZM12.0001 13.0667H59.2209C61.234 13.0667 63.1 14.9278 63.1 17.5001V52.5001C63.1 54.9352 61.1018 56.9334 58.6667 56.9334H12.0001C9.56492 56.9334 7.56672 54.9352 7.56672 52.5001V42.0985C10.9045 41.4456 13.4001 38.5022 13.4001 35.0001C13.4001 31.5048 10.9121 28.5603 7.59588 27.9034V17.5001C7.59588 15.0558 9.57403 13.0667 12.0001 13.0667Z" fill="#FED500" stroke="#1B5AAE" stroke-width="2.8"/>
</svg>
