<svg width="80" height="81" viewBox="0 0 80 81" fill="none" xmlns="http://www.w3.org/2000/svg">
<path d="M60.2676 51.9951C60.2577 52.0215 60.2511 52.0468 60.2434 52.071C60.2522 52.0468 60.2621 52.0226 60.2709 51.9973C60.2962 51.9258 60.3182 51.8532 60.3402 51.7773C60.3182 51.8499 60.2929 51.9214 60.2676 51.9973V51.9951Z" fill="#1B5AAE"/>
<path d="M33.3143 40.4195H41.8712L46.4802 10.6887C46.8707 8.16747 44.9886 5.78268 42.2727 5.36138C39.5568 4.94008 37.0411 6.64286 36.6506 9.16406L32.5179 35.8061C32.3936 36.4606 31.4289 36.4243 31.3673 35.7478L30.8998 30.734L28.9121 9.39397C28.6756 6.84747 26.2721 4.92797 23.5309 5.10397C20.7897 5.27997 18.7723 7.49429 19.0077 10.0408L21.8391 40.4283H31.8337L33.3143 40.4195Z" fill="#1B5AAE"/>
<path d="M60.2698 51.9965C60.3006 51.9118 60.3281 51.8271 60.3534 51.7402L60.3402 51.7798C60.3182 51.8524 60.2951 51.925 60.2698 51.9998V51.9965Z" fill="#1B5AAE"/>
<path d="M44.498 40.4181H45.2174C46.5142 40.4189 47.7843 40.7856 48.8819 41.476C49.9796 42.1664 50.8602 43.1524 51.4225 44.3209L53.2474 34.6992C53.4308 33.7183 53.2183 32.7048 52.6563 31.8802C52.0944 31.0557 51.2288 30.4872 50.2488 30.2992C50.0163 30.2562 49.7802 30.2349 49.5437 30.2354C48.6674 30.2367 47.8188 30.5432 47.1439 31.1023C46.469 31.6613 46.0099 32.438 45.8455 33.2989L44.498 40.4181Z" fill="#1B5AAE"/>
<path d="M30.6758 53.8824L30.5742 53.8184V53.825C30.6063 53.8437 30.6438 53.8625 30.6758 53.8824Z" fill="#1B5AAE"/>
<path d="M30.5745 53.8184C30.5623 53.8117 30.5424 53.7985 30.5303 53.793C30.5435 53.8051 30.5623 53.8117 30.5745 53.825V53.8184Z" fill="#1B5AAE"/>
<path d="M55.7794 56.2491C55.727 56.2472 55.6733 56.2413 55.6187 56.231C54.2021 55.9631 52.9018 55.2691 51.896 54.2415C51.4879 53.8247 51.1364 53.3611 50.8475 52.8628C50.7987 52.7786 50.6427 52.6374 50.3735 52.564C50.1036 52.4904 49.9114 52.5366 49.8398 52.579C49.6163 52.7114 49.3856 52.8325 49.1485 52.9418C48.1469 53.4034 47.0558 53.6419 45.9518 53.641M55.7794 56.2491L37.452 52.641C37.6931 52.9518 37.9288 53.2851 38.1532 53.641M55.7794 56.2491C56.1562 56.3097 56.5373 56.3408 56.9192 56.3422L56.9224 56.3422C57.4385 56.3424 57.9506 56.2858 58.4498 56.1748C58.4948 56.1648 58.5519 56.1635 58.6151 56.1772C58.6789 56.191 58.7349 56.2172 58.7757 56.2463C58.8016 56.2649 58.816 56.2806 58.8231 56.2898C58.2006 61.2412 56.4999 64.9732 53.5052 67.4851C50.4978 70.0076 46.0351 71.4264 39.631 71.4264C33.3208 71.4264 28.8807 70.1208 25.9245 66.9792C22.9446 63.8122 21.2708 58.5705 21.0303 50.204L55.7794 56.2491ZM45.9518 53.641L45.9526 52.6422V53.641H45.9518ZM45.9518 53.641H38.1532M38.1532 53.641C39.1819 55.2732 39.9732 57.3842 39.9629 60.0083M38.1532 53.641L39.9629 60.0083M39.9629 60.0083C39.9611 60.5942 39.7245 61.1534 39.3081 61.5637C38.8917 61.974 38.3299 62.202 37.7467 62.2008C37.1635 62.1995 36.6026 61.9691 36.188 61.557C35.773 61.1445 35.5387 60.5835 35.54 59.997L35.54 59.9964C35.5511 55.9234 32.5473 53.7752 31.5836 53.1992C31.5832 53.199 31.5827 53.1987 31.5821 53.1984L31.5724 53.1931L31.5612 53.187C31.5601 53.1865 31.5572 53.185 31.5511 53.1819C31.5411 53.1766 31.5161 53.1637 31.4874 53.147C31.4559 53.1287 31.4071 53.099 31.3512 53.0555C31.2646 52.9989 31.1808 52.9382 31.1001 52.8735C31.0691 52.8487 31.0442 52.8261 31.027 52.8099C31.0252 52.8082 31.0234 52.8065 31.0217 52.8049C31.0062 52.7927 30.9851 52.7757 30.9615 52.7545C30.6129 52.4431 30.3322 52.0631 30.1376 51.6379C29.8411 50.9901 30.0088 50.3336 30.3876 49.8918C30.7435 49.4768 31.2805 49.2409 31.8338 49.2409H45.9526H45.9541C46.4481 49.2416 46.9347 49.126 47.3738 48.9041L47.3757 48.9031C48.0074 48.5856 48.5106 48.0679 48.8062 47.4356C49.1017 46.8035 49.1734 46.0921 49.0104 45.4155C48.8473 44.7388 48.4584 44.134 47.9037 43.6998C47.3491 43.2656 46.6616 43.0278 45.9517 43.0264H34.7319H34.7296L33.3864 43.0325L32.9059 43.0387L32.8978 43.0388L32.8978 43.0388L23.889 43.0814L23.8842 43.0814V43.0814H22.8953C22.4465 43.0868 22.015 43.2474 21.6755 43.5334C21.3361 43.8191 21.1103 44.2116 21.0344 44.6417C21.0192 44.7344 21.0094 44.8279 21.005 44.9217C21.0043 44.9489 21.0028 44.9714 21.0015 44.9871C21.0011 44.9925 21.0006 44.9975 21.0002 45.0019V48.3204C21.0002 48.9607 21.0126 49.5858 21.0302 50.2039L39.9629 60.0083ZM20.9978 45.0271L20.9979 45.0263L20.9978 45.0271Z" fill="#FED500" stroke="#1B5AAE" stroke-width="2"/>
<path d="M61.8988 36.9425C61.6199 36.5338 61.263 36.1842 60.8487 35.9137C60.4343 35.6433 59.9707 35.4572 59.4843 35.3662C59.252 35.3213 59.0159 35.2981 58.7792 35.2969C57.9029 35.2987 57.0546 35.6063 56.3807 36.1665C55.7068 36.7268 55.2495 37.5046 55.0876 38.3659L53.2771 47.9216L53.0273 49.2691C52.9352 49.7549 52.9397 50.2541 53.0405 50.7382C53.1414 51.2223 53.3366 51.6817 53.6151 52.0903C53.8935 52.4989 54.2498 52.8486 54.6635 53.1195C55.0771 53.3904 55.5401 53.5772 56.0259 53.6691C56.2583 53.7142 56.4943 53.7378 56.731 53.7395C57.3317 53.7376 57.9232 53.5911 58.4553 53.3123C58.9874 53.0335 59.4445 52.6307 59.7879 52.1379C59.844 52.0554 59.8979 51.9718 59.9529 51.8838C60.0079 51.7958 60.0486 51.7056 60.0992 51.6099C60.1311 51.5461 60.1619 51.4834 60.1938 51.413C60.2143 51.3677 60.2316 51.321 60.2455 51.2733C60.229 51.3206 60.2125 51.3679 60.1927 51.413C60.1641 51.4812 60.1289 51.545 60.097 51.611C60.1289 51.545 60.1652 51.4812 60.1927 51.413C60.2125 51.3668 60.2279 51.3206 60.2455 51.2733C60.2532 51.248 60.262 51.2238 60.2697 51.1974C60.2961 51.1259 60.3203 51.0544 60.3434 50.9774C60.3757 50.8752 60.4021 50.7712 60.4226 50.6661L62.4873 39.7629C62.5818 39.2775 62.5787 38.7781 62.4782 38.2939C62.3778 37.8096 62.1819 37.3502 61.9021 36.9425H61.8988Z" fill="#1B5AAE"/>
<path d="M60.4183 51.4707C60.4007 51.5631 60.3787 51.6544 60.3523 51.7435C60.3805 51.6542 60.4025 51.563 60.4183 51.4707Z" fill="#1B5AAE"/>
<path d="M60.3535 51.7396C60.3802 51.6499 60.4022 51.5588 60.4195 51.4668C60.3988 51.5723 60.3724 51.6766 60.3403 51.7792C60.3436 51.766 60.3502 51.7528 60.3535 51.7396Z" fill="#1B5AAE"/>
</svg>
