<svg width="35" height="34" viewBox="0 0 35 34" fill="none" xmlns="http://www.w3.org/2000/svg">
<g clip-path="url(#clip0_1_1480)">
<path d="M34.0466 9.21852C33.8541 8.53176 33.4791 7.91001 32.9615 7.41935C32.4292 6.91361 31.7768 6.55184 31.066 6.36819C28.4055 5.66694 17.7465 5.66694 17.7465 5.66694C13.3028 5.61638 8.86032 5.83874 4.44396 6.33277C3.73307 6.52999 3.08193 6.89984 2.54846 7.40944C2.0243 7.91377 1.64463 8.53569 1.4463 9.2171C0.969862 11.7837 0.738377 14.3898 0.754964 17.0003C0.737964 19.6084 0.96888 22.2136 1.4463 24.7834C1.64038 25.462 2.01863 26.0811 2.54421 26.5812C3.0698 27.0813 3.7243 27.4425 4.44396 27.6338C7.13988 28.3336 17.7465 28.3336 17.7465 28.3336C22.1957 28.3842 26.6439 28.1619 31.066 27.6678C31.7768 27.4841 32.4292 27.1224 32.9615 26.6166C33.4789 26.126 33.8535 25.5042 34.0452 24.8174C34.5341 22.2518 34.7718 19.6446 34.755 17.0329C34.7917 14.41 34.5543 11.7906 34.0466 9.2171V9.21852ZM14.3578 21.8509V12.151L23.2261 17.0017L14.3578 21.8509Z" fill="white"/>
</g>
<defs>
<clipPath id="clip0_1_1480">
<rect width="34" height="34" fill="white" transform="translate(0.754761)"/>
</clipPath>
</defs>
</svg>
