<svg width="60" height="60" viewBox="0 0 60 60" fill="none" xmlns="http://www.w3.org/2000/svg">
<g clip-path="url(#clip0_1_1421)">
<path d="M58.7503 16.2677C58.4106 15.0558 57.7488 13.9586 56.8353 13.0927C55.896 12.2002 54.7448 11.5618 53.4903 11.2377C48.7953 10.0002 29.9853 10.0002 29.9853 10.0002C22.1437 9.91097 14.3039 10.3034 6.51032 11.1752C5.2558 11.5232 4.10673 12.1759 3.16532 13.0752C2.24032 13.9652 1.57032 15.0627 1.22032 16.2652C0.379555 20.7945 -0.0289477 25.3936 0.000322255 30.0002C-0.0296777 34.6027 0.377822 39.2002 1.22032 43.7352C1.56282 44.9327 2.23032 46.0252 3.15782 46.9077C4.08532 47.7902 5.24032 48.4277 6.51032 48.7652C11.2678 50.0002 29.9853 50.0002 29.9853 50.0002C37.837 50.0895 45.6867 49.6971 53.4903 48.8252C54.7448 48.5011 55.896 47.8627 56.8353 46.9702C57.7485 46.1045 58.4095 45.0071 58.7478 43.7952C59.6105 39.2676 60.03 34.6667 60.0003 30.0577C60.0652 25.4292 59.6463 20.8066 58.7503 16.2652V16.2677ZM24.0053 38.5602V21.4427L39.6553 30.0027L24.0053 38.5602Z" fill="#1B5AAE"/>
</g>
<defs>
<clipPath id="clip0_1_1421">
<rect width="60" height="60" fill="white"/>
</clipPath>
</defs>
</svg>
